G04 #@! TF.GenerationSoftware,KiCad,Pcbnew,9.0.0-9.0.0-2~ubuntu24.04.1*
G04 #@! TF.CreationDate,2025-03-14T16:09:41-04:00*
G04 #@! TF.ProjectId,RiftBox,52696674-426f-4782-9e6b-696361645f70,rev?*
G04 #@! TF.SameCoordinates,Original*
G04 #@! TF.FileFunction,Copper,L1,Top*
G04 #@! TF.FilePolarity,Positive*
%FSLAX46Y46*%
G04 Gerber Fmt 4.6, Leading zero omitted, Abs format (unit mm)*
G04 Created by KiCad (PCBNEW 9.0.0-9.0.0-2~ubuntu24.04.1) date 2025-03-14 16:09:41*
%MOMM*%
%LPD*%
G01*
G04 APERTURE LIST*
G04 Aperture macros list*
%AMRoundRect*
0 Rectangle with rounded corners*
0 $1 Rounding radius*
0 $2 $3 $4 $5 $6 $7 $8 $9 X,Y pos of 4 corners*
0 Add a 4 corners polygon primitive as box body*
4,1,4,$2,$3,$4,$5,$6,$7,$8,$9,$2,$3,0*
0 Add four circle primitives for the rounded corners*
1,1,$1+$1,$2,$3*
1,1,$1+$1,$4,$5*
1,1,$1+$1,$6,$7*
1,1,$1+$1,$8,$9*
0 Add four rect primitives between the rounded corners*
20,1,$1+$1,$2,$3,$4,$5,0*
20,1,$1+$1,$4,$5,$6,$7,0*
20,1,$1+$1,$6,$7,$8,$9,0*
20,1,$1+$1,$8,$9,$2,$3,0*%
G04 Aperture macros list end*
G04 #@! TA.AperFunction,ComponentPad*
%ADD10O,2.000000X1.700000*%
G04 #@! TD*
G04 #@! TA.AperFunction,ComponentPad*
%ADD11RoundRect,0.250000X-0.750000X0.600000X-0.750000X-0.600000X0.750000X-0.600000X0.750000X0.600000X0*%
G04 #@! TD*
G04 #@! TA.AperFunction,ComponentPad*
%ADD12RoundRect,0.250000X0.750000X-0.600000X0.750000X0.600000X-0.750000X0.600000X-0.750000X-0.600000X0*%
G04 #@! TD*
G04 #@! TA.AperFunction,SMDPad,CuDef*
%ADD13RoundRect,0.152400X-1.063600X-0.609600X1.063600X-0.609600X1.063600X0.609600X-1.063600X0.609600X0*%
G04 #@! TD*
G04 #@! TA.AperFunction,ComponentPad*
%ADD14C,1.524000*%
G04 #@! TD*
G04 #@! TA.AperFunction,SMDPad,CuDef*
%ADD15RoundRect,0.152400X1.063600X0.609600X-1.063600X0.609600X-1.063600X-0.609600X1.063600X-0.609600X0*%
G04 #@! TD*
G04 APERTURE END LIST*
D10*
X148500000Y-76040000D03*
D11*
X148500000Y-73500000D03*
X148480000Y-54620000D03*
D10*
X148480000Y-57160000D03*
D11*
X148455000Y-64080000D03*
D10*
X148455000Y-66620000D03*
D12*
X176930000Y-57370000D03*
D10*
X176930000Y-54830000D03*
D12*
X176955000Y-66660000D03*
D10*
X176955000Y-64120000D03*
D13*
X170955000Y-52880000D03*
D14*
X170120000Y-52880000D03*
D13*
X170955000Y-55420000D03*
D14*
X170120000Y-55420000D03*
D13*
X170955000Y-57960000D03*
D14*
X170120000Y-57960000D03*
D13*
X170955000Y-60500000D03*
D14*
X170120000Y-60500000D03*
D13*
X170955000Y-63040000D03*
D14*
X170120000Y-63040000D03*
D13*
X170955000Y-65580000D03*
D14*
X170120000Y-65580000D03*
D13*
X170955000Y-68120000D03*
D14*
X170120000Y-68120000D03*
X154880000Y-68120000D03*
D15*
X154045000Y-68120000D03*
D14*
X154880000Y-65580000D03*
D15*
X154045000Y-65580000D03*
D14*
X154880000Y-63040000D03*
D15*
X154045000Y-63040000D03*
D14*
X154880000Y-60500000D03*
D15*
X154045000Y-60500000D03*
D14*
X154880000Y-57960000D03*
D15*
X154045000Y-57960000D03*
D14*
X154880000Y-55420000D03*
D15*
X154045000Y-55420000D03*
D14*
X154880000Y-52880000D03*
D15*
X154045000Y-52880000D03*
G04 #@! TA.AperFunction,Conductor*
G36*
X192120090Y-50520185D02*
G01*
X192165845Y-50572989D01*
X192175789Y-50642147D01*
X192146764Y-50705703D01*
X192124175Y-50726075D01*
X191861580Y-50909945D01*
X191517055Y-51199037D01*
X191199037Y-51517055D01*
X190909941Y-51861585D01*
X190651985Y-52229984D01*
X190651969Y-52230010D01*
X190427101Y-52619491D01*
X190427093Y-52619506D01*
X190237029Y-53027101D01*
X190237026Y-53027107D01*
X190237025Y-53027111D01*
X190209123Y-53103771D01*
X190083197Y-53449749D01*
X189966799Y-53884158D01*
X189966796Y-53884171D01*
X189888698Y-54327081D01*
X189849500Y-54775120D01*
X189849500Y-55224879D01*
X189888698Y-55672918D01*
X189966796Y-56115828D01*
X189966799Y-56115841D01*
X190083197Y-56550250D01*
X190083200Y-56550260D01*
X190083201Y-56550261D01*
X190237025Y-56972889D01*
X190237028Y-56972896D01*
X190237029Y-56972898D01*
X190427093Y-57380493D01*
X190427101Y-57380508D01*
X190562724Y-57615412D01*
X190651974Y-57769998D01*
X190651978Y-57770004D01*
X190651985Y-57770015D01*
X190909941Y-58138414D01*
X191049376Y-58304585D01*
X191199035Y-58482942D01*
X191517058Y-58800965D01*
X191618671Y-58886228D01*
X191861585Y-59090058D01*
X192229984Y-59348014D01*
X192229991Y-59348018D01*
X192230002Y-59348026D01*
X192532125Y-59522457D01*
X192619491Y-59572898D01*
X192619506Y-59572906D01*
X192800659Y-59657378D01*
X193027111Y-59762975D01*
X193449739Y-59916799D01*
X193449745Y-59916800D01*
X193449749Y-59916802D01*
X193568052Y-59948500D01*
X193884166Y-60033203D01*
X194327084Y-60111302D01*
X194775122Y-60150499D01*
X194775123Y-60150500D01*
X194775124Y-60150500D01*
X195224877Y-60150500D01*
X195224877Y-60150499D01*
X195672916Y-60111302D01*
X196115834Y-60033203D01*
X196550261Y-59916799D01*
X196972889Y-59762975D01*
X197380502Y-59572902D01*
X197769998Y-59348026D01*
X198138413Y-59090059D01*
X198482942Y-58800965D01*
X198800965Y-58482942D01*
X199090059Y-58138413D01*
X199273925Y-57875824D01*
X199328502Y-57832200D01*
X199398000Y-57825006D01*
X199460355Y-57856529D01*
X199495769Y-57916759D01*
X199499500Y-57946948D01*
X199499500Y-77053051D01*
X199479815Y-77120090D01*
X199427011Y-77165845D01*
X199357853Y-77175789D01*
X199294297Y-77146764D01*
X199273925Y-77124175D01*
X199224123Y-77053051D01*
X199090059Y-76861587D01*
X199090058Y-76861586D01*
X199090054Y-76861580D01*
X198835501Y-76558217D01*
X198800965Y-76517058D01*
X198482942Y-76199035D01*
X198371860Y-76105826D01*
X198138414Y-75909941D01*
X197770015Y-75651985D01*
X197770004Y-75651978D01*
X197769998Y-75651974D01*
X197576054Y-75540000D01*
X197380508Y-75427101D01*
X197380493Y-75427093D01*
X196972898Y-75237029D01*
X196972896Y-75237028D01*
X196972889Y-75237025D01*
X196550261Y-75083201D01*
X196550260Y-75083200D01*
X196550250Y-75083197D01*
X196115841Y-74966799D01*
X196115844Y-74966799D01*
X196115834Y-74966797D01*
X196053300Y-74955770D01*
X195672918Y-74888698D01*
X195224879Y-74849500D01*
X195224876Y-74849500D01*
X194775124Y-74849500D01*
X194775120Y-74849500D01*
X194327081Y-74888698D01*
X193884171Y-74966796D01*
X193884168Y-74966796D01*
X193884166Y-74966797D01*
X193884161Y-74966798D01*
X193884158Y-74966799D01*
X193449749Y-75083197D01*
X193238425Y-75160113D01*
X193027111Y-75237025D01*
X193027107Y-75237026D01*
X193027101Y-75237029D01*
X192619506Y-75427093D01*
X192619491Y-75427101D01*
X192230010Y-75651969D01*
X192229984Y-75651985D01*
X191861585Y-75909941D01*
X191517055Y-76199037D01*
X191199037Y-76517055D01*
X190909941Y-76861585D01*
X190651985Y-77229984D01*
X190651969Y-77230010D01*
X190427101Y-77619491D01*
X190427093Y-77619506D01*
X190237029Y-78027101D01*
X190083197Y-78449749D01*
X189966799Y-78884158D01*
X189966796Y-78884171D01*
X189888698Y-79327081D01*
X189849500Y-79775120D01*
X189849500Y-80224879D01*
X189888698Y-80672918D01*
X189966796Y-81115828D01*
X189966799Y-81115841D01*
X190083197Y-81550250D01*
X190083200Y-81550260D01*
X190083201Y-81550261D01*
X190237025Y-81972889D01*
X190237028Y-81972896D01*
X190237029Y-81972898D01*
X190427093Y-82380493D01*
X190427101Y-82380508D01*
X190585162Y-82654276D01*
X190651974Y-82769998D01*
X190651978Y-82770004D01*
X190651985Y-82770015D01*
X190909941Y-83138414D01*
X191118899Y-83387440D01*
X191199035Y-83482942D01*
X191517058Y-83800965D01*
X191639661Y-83903841D01*
X191861580Y-84090054D01*
X192124175Y-84273925D01*
X192167799Y-84328502D01*
X192174992Y-84398001D01*
X192143470Y-84460355D01*
X192083240Y-84495769D01*
X192053051Y-84499500D01*
X132946949Y-84499500D01*
X132879910Y-84479815D01*
X132834155Y-84427011D01*
X132824211Y-84357853D01*
X132853236Y-84294297D01*
X132875825Y-84273925D01*
X133138413Y-84090059D01*
X133482942Y-83800965D01*
X133800965Y-83482942D01*
X134090059Y-83138413D01*
X134348026Y-82769998D01*
X134572902Y-82380502D01*
X134762975Y-81972889D01*
X134916799Y-81550261D01*
X135033203Y-81115834D01*
X135111302Y-80672916D01*
X135150500Y-80224876D01*
X135150500Y-79775124D01*
X135111302Y-79327084D01*
X135033203Y-78884166D01*
X134916799Y-78449739D01*
X134762975Y-78027111D01*
X134572902Y-77619498D01*
X134348026Y-77230002D01*
X134348018Y-77229991D01*
X134348014Y-77229984D01*
X134090058Y-76861585D01*
X133835501Y-76558217D01*
X133800965Y-76517058D01*
X133482942Y-76199035D01*
X133371860Y-76105826D01*
X133138414Y-75909941D01*
X132770015Y-75651985D01*
X132770004Y-75651978D01*
X132769998Y-75651974D01*
X132576054Y-75540000D01*
X132380508Y-75427101D01*
X132380493Y-75427093D01*
X131972898Y-75237029D01*
X131972896Y-75237028D01*
X131972889Y-75237025D01*
X131550261Y-75083201D01*
X131550260Y-75083200D01*
X131550250Y-75083197D01*
X131115841Y-74966799D01*
X131115844Y-74966799D01*
X131115834Y-74966797D01*
X131053300Y-74955770D01*
X130672918Y-74888698D01*
X130224879Y-74849500D01*
X130224876Y-74849500D01*
X129775124Y-74849500D01*
X129775120Y-74849500D01*
X129327081Y-74888698D01*
X128884171Y-74966796D01*
X128884168Y-74966796D01*
X128884166Y-74966797D01*
X128884161Y-74966798D01*
X128884158Y-74966799D01*
X128449749Y-75083197D01*
X128238425Y-75160113D01*
X128027111Y-75237025D01*
X128027107Y-75237026D01*
X128027101Y-75237029D01*
X127619506Y-75427093D01*
X127619491Y-75427101D01*
X127230010Y-75651969D01*
X127229984Y-75651985D01*
X126861585Y-75909941D01*
X126517055Y-76199037D01*
X126199037Y-76517055D01*
X125909945Y-76861580D01*
X125726075Y-77124175D01*
X125671498Y-77167799D01*
X125601999Y-77174992D01*
X125539645Y-77143470D01*
X125504231Y-77083240D01*
X125500500Y-77053051D01*
X125500500Y-71816228D01*
X145649500Y-71816228D01*
X145649500Y-71983771D01*
X145682182Y-72148074D01*
X145682184Y-72148082D01*
X145746295Y-72302860D01*
X145839373Y-72442162D01*
X145957837Y-72560626D01*
X146050494Y-72622537D01*
X146097137Y-72653703D01*
X146251918Y-72717816D01*
X146327028Y-72732756D01*
X146399691Y-72747210D01*
X146461602Y-72779594D01*
X146496176Y-72840310D01*
X146499500Y-72868827D01*
X146499500Y-74164208D01*
X146499501Y-74164223D01*
X146509904Y-74296413D01*
X146509905Y-74296420D01*
X146564902Y-74514678D01*
X146564903Y-74514681D01*
X146657991Y-74719622D01*
X146657997Y-74719632D01*
X146786174Y-74904645D01*
X146786178Y-74904650D01*
X146786181Y-74904654D01*
X146945346Y-75063819D01*
X146945350Y-75063822D01*
X146945354Y-75063825D01*
X146973316Y-75083197D01*
X147130374Y-75192007D01*
X147130385Y-75192012D01*
X147133182Y-75193599D01*
X147134221Y-75194673D01*
X147134952Y-75195179D01*
X147134851Y-75195323D01*
X147181780Y-75243799D01*
X147195523Y-75312303D01*
X147182484Y-75357749D01*
X147098904Y-75521782D01*
X147033242Y-75723870D01*
X147033242Y-75723873D01*
X147022769Y-75790000D01*
X148066988Y-75790000D01*
X148034075Y-75847007D01*
X148000000Y-75974174D01*
X148000000Y-76105826D01*
X148034075Y-76232993D01*
X148066988Y-76290000D01*
X147022769Y-76290000D01*
X147033242Y-76356126D01*
X147033242Y-76356129D01*
X147098904Y-76558217D01*
X147195379Y-76747557D01*
X147320272Y-76919459D01*
X147320276Y-76919464D01*
X147470535Y-77069723D01*
X147470540Y-77069727D01*
X147642442Y-77194620D01*
X147831782Y-77291095D01*
X148033870Y-77356757D01*
X148243754Y-77390000D01*
X148250000Y-77390000D01*
X148250000Y-76473012D01*
X148307007Y-76505925D01*
X148434174Y-76540000D01*
X148565826Y-76540000D01*
X148692993Y-76505925D01*
X148750000Y-76473012D01*
X148750000Y-77390000D01*
X148756246Y-77390000D01*
X148966127Y-77356757D01*
X148966130Y-77356757D01*
X149168217Y-77291095D01*
X149357557Y-77194620D01*
X149529459Y-77069727D01*
X149529464Y-77069723D01*
X149679723Y-76919464D01*
X149679727Y-76919459D01*
X149804620Y-76747557D01*
X149901095Y-76558217D01*
X149966757Y-76356129D01*
X149966757Y-76356126D01*
X149977231Y-76290000D01*
X148933012Y-76290000D01*
X148965925Y-76232993D01*
X149000000Y-76105826D01*
X149000000Y-75974174D01*
X148965925Y-75847007D01*
X148933012Y-75790000D01*
X149977231Y-75790000D01*
X149966757Y-75723873D01*
X149966757Y-75723870D01*
X149901095Y-75521782D01*
X149817516Y-75357750D01*
X149804620Y-75289081D01*
X149830896Y-75224341D01*
X149866807Y-75193606D01*
X149869611Y-75192013D01*
X149869626Y-75192007D01*
X150054654Y-75063819D01*
X150213819Y-74904654D01*
X150342007Y-74719626D01*
X150435096Y-74514683D01*
X150490096Y-74296412D01*
X150500500Y-74164217D01*
X150500499Y-72835784D01*
X150490096Y-72703588D01*
X150435096Y-72485317D01*
X150342007Y-72280374D01*
X150213819Y-72095346D01*
X150054654Y-71936181D01*
X150054650Y-71936178D01*
X150054645Y-71936174D01*
X149869632Y-71807997D01*
X149869630Y-71807995D01*
X149869626Y-71807993D01*
X149669242Y-71716975D01*
X149664681Y-71714903D01*
X149664678Y-71714902D01*
X149446420Y-71659905D01*
X149446413Y-71659904D01*
X149402347Y-71656436D01*
X149314217Y-71649500D01*
X149314215Y-71649500D01*
X147685791Y-71649500D01*
X147685776Y-71649501D01*
X147553588Y-71659904D01*
X147446961Y-71686772D01*
X147377144Y-71684064D01*
X147319874Y-71644040D01*
X147302102Y-71613982D01*
X147253705Y-71497141D01*
X147253704Y-71497139D01*
X147160626Y-71357837D01*
X147042162Y-71239373D01*
X146902860Y-71146295D01*
X146748082Y-71082184D01*
X146748074Y-71082182D01*
X146583771Y-71049500D01*
X146583767Y-71049500D01*
X146416233Y-71049500D01*
X146416228Y-71049500D01*
X146251925Y-71082182D01*
X146251917Y-71082184D01*
X146097139Y-71146295D01*
X145957837Y-71239373D01*
X145839373Y-71357837D01*
X145746295Y-71497139D01*
X145682184Y-71651917D01*
X145682182Y-71651925D01*
X145649500Y-71816228D01*
X125500500Y-71816228D01*
X125500500Y-62396228D01*
X145604500Y-62396228D01*
X145604500Y-62563771D01*
X145637182Y-62728074D01*
X145637184Y-62728082D01*
X145701295Y-62882860D01*
X145794373Y-63022162D01*
X145912837Y-63140626D01*
X146005494Y-63202537D01*
X146052137Y-63233703D01*
X146206918Y-63297816D01*
X146282028Y-63312756D01*
X146354691Y-63327210D01*
X146416602Y-63359594D01*
X146451176Y-63420310D01*
X146454500Y-63448827D01*
X146454500Y-64744208D01*
X146454501Y-64744223D01*
X146464904Y-64876413D01*
X146464905Y-64876420D01*
X146519902Y-65094678D01*
X146519903Y-65094681D01*
X146612991Y-65299622D01*
X146612997Y-65299632D01*
X146741174Y-65484645D01*
X146741178Y-65484650D01*
X146741181Y-65484654D01*
X146900346Y-65643819D01*
X146900350Y-65643822D01*
X146900354Y-65643825D01*
X147060220Y-65754580D01*
X147085374Y-65772007D01*
X147085385Y-65772012D01*
X147088182Y-65773599D01*
X147089221Y-65774673D01*
X147089952Y-65775179D01*
X147089851Y-65775323D01*
X147136780Y-65823799D01*
X147150523Y-65892303D01*
X147137484Y-65937749D01*
X147053904Y-66101782D01*
X146988242Y-66303870D01*
X146988242Y-66303873D01*
X146977769Y-66370000D01*
X148021988Y-66370000D01*
X147989075Y-66427007D01*
X147955000Y-66554174D01*
X147955000Y-66685826D01*
X147989075Y-66812993D01*
X148021988Y-66870000D01*
X146977769Y-66870000D01*
X146988242Y-66936126D01*
X146988242Y-66936129D01*
X147053904Y-67138217D01*
X147150379Y-67327557D01*
X147275272Y-67499459D01*
X147275276Y-67499464D01*
X147425535Y-67649723D01*
X147425540Y-67649727D01*
X147597442Y-67774620D01*
X147786782Y-67871095D01*
X147988870Y-67936757D01*
X148198754Y-67970000D01*
X148205000Y-67970000D01*
X148205000Y-67053012D01*
X148262007Y-67085925D01*
X148389174Y-67120000D01*
X148520826Y-67120000D01*
X148647993Y-67085925D01*
X148705000Y-67053012D01*
X148705000Y-67970000D01*
X148711246Y-67970000D01*
X148921127Y-67936757D01*
X148921130Y-67936757D01*
X149123217Y-67871095D01*
X149312557Y-67774620D01*
X149484459Y-67649727D01*
X149484464Y-67649723D01*
X149634723Y-67499464D01*
X149634727Y-67499459D01*
X149759620Y-67327557D01*
X149856095Y-67138217D01*
X149921757Y-66936129D01*
X149921757Y-66936126D01*
X149932231Y-66870000D01*
X148888012Y-66870000D01*
X148920925Y-66812993D01*
X148955000Y-66685826D01*
X148955000Y-66554174D01*
X148920925Y-66427007D01*
X148888012Y-66370000D01*
X149932231Y-66370000D01*
X149921757Y-66303873D01*
X149921757Y-66303870D01*
X149856095Y-66101782D01*
X149772516Y-65937750D01*
X149759620Y-65869081D01*
X149785896Y-65804341D01*
X149821807Y-65773606D01*
X149824611Y-65772013D01*
X149824626Y-65772007D01*
X150009654Y-65643819D01*
X150168819Y-65484654D01*
X150297007Y-65299626D01*
X150390096Y-65094683D01*
X150445096Y-64876412D01*
X150455500Y-64744217D01*
X150455499Y-63415784D01*
X150445096Y-63283588D01*
X150434247Y-63240535D01*
X150390097Y-63065321D01*
X150390096Y-63065318D01*
X150326127Y-62924486D01*
X150297007Y-62860374D01*
X150168819Y-62675346D01*
X150009654Y-62516181D01*
X150009650Y-62516178D01*
X150009645Y-62516174D01*
X149824632Y-62387997D01*
X149824630Y-62387995D01*
X149824626Y-62387993D01*
X149624242Y-62296975D01*
X149619681Y-62294903D01*
X149619678Y-62294902D01*
X149401420Y-62239905D01*
X149401413Y-62239904D01*
X149357347Y-62236436D01*
X149269217Y-62229500D01*
X149269215Y-62229500D01*
X147640791Y-62229500D01*
X147640776Y-62229501D01*
X147508588Y-62239904D01*
X147401961Y-62266772D01*
X147332144Y-62264064D01*
X147274874Y-62224040D01*
X147257102Y-62193982D01*
X147208705Y-62077141D01*
X147208704Y-62077139D01*
X147115626Y-61937837D01*
X146997162Y-61819373D01*
X146857860Y-61726295D01*
X146703082Y-61662184D01*
X146703074Y-61662182D01*
X146538771Y-61629500D01*
X146538767Y-61629500D01*
X146371233Y-61629500D01*
X146371228Y-61629500D01*
X146206925Y-61662182D01*
X146206917Y-61662184D01*
X146052139Y-61726295D01*
X145912837Y-61819373D01*
X145794373Y-61937837D01*
X145701295Y-62077139D01*
X145637184Y-62231917D01*
X145637182Y-62231925D01*
X145604500Y-62396228D01*
X125500500Y-62396228D01*
X125500500Y-57946948D01*
X125520185Y-57879909D01*
X125572989Y-57834154D01*
X125642147Y-57824210D01*
X125705703Y-57853235D01*
X125726075Y-57875825D01*
X125909941Y-58138414D01*
X126049376Y-58304585D01*
X126199035Y-58482942D01*
X126517058Y-58800965D01*
X126618671Y-58886228D01*
X126861585Y-59090058D01*
X127229984Y-59348014D01*
X127229991Y-59348018D01*
X127230002Y-59348026D01*
X127532125Y-59522457D01*
X127619491Y-59572898D01*
X127619506Y-59572906D01*
X127800659Y-59657378D01*
X128027111Y-59762975D01*
X128449739Y-59916799D01*
X128449745Y-59916800D01*
X128449749Y-59916802D01*
X128568052Y-59948500D01*
X128884166Y-60033203D01*
X129327084Y-60111302D01*
X129775122Y-60150499D01*
X129775123Y-60150500D01*
X129775124Y-60150500D01*
X130224877Y-60150500D01*
X130224877Y-60150499D01*
X130672916Y-60111302D01*
X131115834Y-60033203D01*
X131550261Y-59916799D01*
X131972889Y-59762975D01*
X132380502Y-59572902D01*
X132769998Y-59348026D01*
X133138413Y-59090059D01*
X133482942Y-58800965D01*
X133800965Y-58482942D01*
X134090059Y-58138413D01*
X134348026Y-57769998D01*
X134572902Y-57380502D01*
X134585730Y-57352993D01*
X134600867Y-57320532D01*
X134600867Y-57320531D01*
X134620122Y-57279239D01*
X134762975Y-56972889D01*
X134916799Y-56550261D01*
X135033203Y-56115834D01*
X135111302Y-55672916D01*
X135150500Y-55224876D01*
X135150500Y-54775124D01*
X135111302Y-54327084D01*
X135033203Y-53884166D01*
X134933815Y-53513242D01*
X134916802Y-53449749D01*
X134916800Y-53449745D01*
X134916799Y-53449739D01*
X134762975Y-53027111D01*
X134720596Y-52936228D01*
X145629500Y-52936228D01*
X145629500Y-53103771D01*
X145662182Y-53268074D01*
X145662184Y-53268082D01*
X145726295Y-53422860D01*
X145819373Y-53562162D01*
X145937837Y-53680626D01*
X146030494Y-53742537D01*
X146077137Y-53773703D01*
X146231918Y-53837816D01*
X146307028Y-53852756D01*
X146379691Y-53867210D01*
X146441602Y-53899594D01*
X146476176Y-53960310D01*
X146479500Y-53988827D01*
X146479500Y-55284208D01*
X146479501Y-55284223D01*
X146489904Y-55416413D01*
X146489905Y-55416420D01*
X146544902Y-55634678D01*
X146544903Y-55634681D01*
X146637991Y-55839622D01*
X146637997Y-55839632D01*
X146766174Y-56024645D01*
X146766178Y-56024650D01*
X146766181Y-56024654D01*
X146925346Y-56183819D01*
X146925350Y-56183822D01*
X146925354Y-56183825D01*
X147065575Y-56280970D01*
X147110374Y-56312007D01*
X147110385Y-56312012D01*
X147113182Y-56313599D01*
X147114221Y-56314673D01*
X147114952Y-56315179D01*
X147114851Y-56315323D01*
X147161780Y-56363799D01*
X147175523Y-56432303D01*
X147162484Y-56477749D01*
X147078904Y-56641782D01*
X147013242Y-56843870D01*
X147013242Y-56843873D01*
X147002769Y-56910000D01*
X148046988Y-56910000D01*
X148014075Y-56967007D01*
X147980000Y-57094174D01*
X147980000Y-57225826D01*
X148014075Y-57352993D01*
X148046988Y-57410000D01*
X147002769Y-57410000D01*
X147013242Y-57476126D01*
X147013242Y-57476129D01*
X147078904Y-57678217D01*
X147175379Y-57867557D01*
X147300272Y-58039459D01*
X147300276Y-58039464D01*
X147450535Y-58189723D01*
X147450540Y-58189727D01*
X147622442Y-58314620D01*
X147811782Y-58411095D01*
X148013870Y-58476757D01*
X148223754Y-58510000D01*
X148230000Y-58510000D01*
X148230000Y-57593012D01*
X148287007Y-57625925D01*
X148414174Y-57660000D01*
X148545826Y-57660000D01*
X148672993Y-57625925D01*
X148730000Y-57593012D01*
X148730000Y-58510000D01*
X148736246Y-58510000D01*
X148946127Y-58476757D01*
X148946130Y-58476757D01*
X149148217Y-58411095D01*
X149337557Y-58314620D01*
X149509459Y-58189727D01*
X149509464Y-58189723D01*
X149659723Y-58039464D01*
X149659727Y-58039459D01*
X149784620Y-57867557D01*
X149881095Y-57678217D01*
X149946757Y-57476129D01*
X149946757Y-57476126D01*
X149957231Y-57410000D01*
X148913012Y-57410000D01*
X148945925Y-57352993D01*
X148980000Y-57225826D01*
X148980000Y-57094174D01*
X148945925Y-56967007D01*
X148913012Y-56910000D01*
X149957231Y-56910000D01*
X149946757Y-56843873D01*
X149946757Y-56843870D01*
X149881095Y-56641782D01*
X149797516Y-56477750D01*
X149784620Y-56409081D01*
X149810896Y-56344341D01*
X149846807Y-56313606D01*
X149849611Y-56312013D01*
X149849626Y-56312007D01*
X150034654Y-56183819D01*
X150193819Y-56024654D01*
X150322007Y-55839626D01*
X150415096Y-55634683D01*
X150470096Y-55416412D01*
X150480500Y-55284217D01*
X150480499Y-53955784D01*
X150470096Y-53823588D01*
X150415096Y-53605317D01*
X150322007Y-53400374D01*
X150230349Y-53268074D01*
X150193825Y-53215354D01*
X150193822Y-53215350D01*
X150193819Y-53215346D01*
X150034654Y-53056181D01*
X150034650Y-53056178D01*
X150034645Y-53056174D01*
X149849632Y-52927997D01*
X149849630Y-52927995D01*
X149849626Y-52927993D01*
X149649242Y-52836975D01*
X149644681Y-52834903D01*
X149644678Y-52834902D01*
X149426420Y-52779905D01*
X149426413Y-52779904D01*
X149382347Y-52776436D01*
X149294217Y-52769500D01*
X149294215Y-52769500D01*
X147665791Y-52769500D01*
X147665776Y-52769501D01*
X147533588Y-52779904D01*
X147426961Y-52806772D01*
X147357144Y-52804064D01*
X147299874Y-52764040D01*
X147282102Y-52733982D01*
X147233705Y-52617141D01*
X147233704Y-52617139D01*
X147140626Y-52477837D01*
X147022165Y-52359376D01*
X147022161Y-52359373D01*
X146933598Y-52300197D01*
X146922746Y-52292946D01*
X146882863Y-52266297D01*
X146882860Y-52266295D01*
X146882859Y-52266295D01*
X146728082Y-52202184D01*
X146728074Y-52202182D01*
X146713279Y-52199239D01*
X151828500Y-52199239D01*
X151828500Y-53560760D01*
X151834663Y-53649561D01*
X151834664Y-53649570D01*
X151883580Y-53857542D01*
X151883582Y-53857548D01*
X151883583Y-53857551D01*
X151969886Y-54053010D01*
X151969887Y-54053011D01*
X151969888Y-54053013D01*
X151988322Y-54079925D01*
X152009967Y-54146357D01*
X151992261Y-54213946D01*
X151988322Y-54220075D01*
X151969888Y-54246986D01*
X151883582Y-54442451D01*
X151883580Y-54442457D01*
X151834665Y-54650427D01*
X151834663Y-54650442D01*
X151828500Y-54739239D01*
X151828500Y-56100760D01*
X151834663Y-56189561D01*
X151834664Y-56189570D01*
X151883580Y-56397542D01*
X151883582Y-56397548D01*
X151883583Y-56397551D01*
X151969886Y-56593010D01*
X151969887Y-56593012D01*
X151969888Y-56593013D01*
X151988322Y-56619925D01*
X152009967Y-56686357D01*
X151992261Y-56753946D01*
X151988322Y-56760075D01*
X151969888Y-56786986D01*
X151883582Y-56982451D01*
X151883580Y-56982457D01*
X151834665Y-57190427D01*
X151834663Y-57190442D01*
X151828500Y-57279239D01*
X151828500Y-58640760D01*
X151834663Y-58729561D01*
X151834664Y-58729570D01*
X151883580Y-58937542D01*
X151883582Y-58937548D01*
X151883583Y-58937551D01*
X151969886Y-59133010D01*
X151969887Y-59133012D01*
X151969888Y-59133013D01*
X151988322Y-59159925D01*
X152009967Y-59226357D01*
X151992261Y-59293946D01*
X151988322Y-59300075D01*
X151969888Y-59326986D01*
X151969886Y-59326989D01*
X151969886Y-59326990D01*
X151966169Y-59335409D01*
X151883582Y-59522451D01*
X151883580Y-59522457D01*
X151834665Y-59730427D01*
X151834663Y-59730442D01*
X151828500Y-59819239D01*
X151828500Y-61180760D01*
X151834663Y-61269561D01*
X151834664Y-61269570D01*
X151883580Y-61477542D01*
X151883582Y-61477548D01*
X151883583Y-61477551D01*
X151969886Y-61673010D01*
X151969887Y-61673012D01*
X151969888Y-61673013D01*
X151988322Y-61699925D01*
X152009967Y-61766357D01*
X151992261Y-61833946D01*
X151988322Y-61840075D01*
X151969888Y-61866986D01*
X151969886Y-61866989D01*
X151969886Y-61866990D01*
X151966169Y-61875409D01*
X151883582Y-62062451D01*
X151883580Y-62062457D01*
X151834665Y-62270427D01*
X151834663Y-62270442D01*
X151828500Y-62359239D01*
X151828500Y-63720760D01*
X151834663Y-63809561D01*
X151834664Y-63809570D01*
X151883580Y-64017542D01*
X151883582Y-64017548D01*
X151883583Y-64017551D01*
X151969886Y-64213010D01*
X151969887Y-64213012D01*
X151969888Y-64213013D01*
X151988322Y-64239925D01*
X152009967Y-64306357D01*
X151992261Y-64373946D01*
X151988322Y-64380075D01*
X151969888Y-64406986D01*
X151969886Y-64406989D01*
X151969886Y-64406990D01*
X151966169Y-64415409D01*
X151883582Y-64602451D01*
X151883580Y-64602457D01*
X151834665Y-64810427D01*
X151834663Y-64810442D01*
X151828500Y-64899239D01*
X151828500Y-66260760D01*
X151834663Y-66349561D01*
X151834664Y-66349570D01*
X151883580Y-66557542D01*
X151883582Y-66557548D01*
X151883583Y-66557551D01*
X151969886Y-66753010D01*
X151969887Y-66753012D01*
X151969888Y-66753013D01*
X151988322Y-66779925D01*
X152009967Y-66846357D01*
X151992261Y-66913946D01*
X151988322Y-66920075D01*
X151969888Y-66946986D01*
X151969886Y-66946989D01*
X151969886Y-66946990D01*
X151912350Y-67077296D01*
X151883582Y-67142451D01*
X151883580Y-67142457D01*
X151834665Y-67350427D01*
X151834663Y-67350442D01*
X151828500Y-67439239D01*
X151828500Y-68800760D01*
X151834663Y-68889561D01*
X151834664Y-68889570D01*
X151883580Y-69097542D01*
X151883582Y-69097548D01*
X151883583Y-69097551D01*
X151969886Y-69293010D01*
X152090635Y-69469282D01*
X152241718Y-69620365D01*
X152417990Y-69741114D01*
X152613449Y-69827417D01*
X152613455Y-69827418D01*
X152613457Y-69827419D01*
X152821427Y-69876334D01*
X152821430Y-69876334D01*
X152821437Y-69876336D01*
X152910243Y-69882500D01*
X154764473Y-69882499D01*
X154764480Y-69882500D01*
X154995520Y-69882500D01*
X154995526Y-69882499D01*
X155179756Y-69882499D01*
X155179760Y-69882499D01*
X155238960Y-69878390D01*
X155268563Y-69876336D01*
X155268564Y-69876335D01*
X155268570Y-69876335D01*
X155476542Y-69827419D01*
X155476540Y-69827419D01*
X155476551Y-69827417D01*
X155672010Y-69741114D01*
X155848282Y-69620365D01*
X155936104Y-69532541D01*
X155948300Y-69521847D01*
X156016799Y-69469286D01*
X156044591Y-69447961D01*
X156207961Y-69284591D01*
X156348610Y-69101294D01*
X156464130Y-68901207D01*
X156552546Y-68687753D01*
X156612343Y-68464585D01*
X156642500Y-68235520D01*
X156642500Y-68004480D01*
X156612343Y-67775415D01*
X156552546Y-67552247D01*
X156481366Y-67380404D01*
X156464135Y-67338804D01*
X156464128Y-67338789D01*
X156348610Y-67138706D01*
X156207962Y-66955410D01*
X156190235Y-66937683D01*
X156156748Y-66876361D01*
X156161731Y-66806669D01*
X156190235Y-66762317D01*
X156207961Y-66744591D01*
X156348610Y-66561294D01*
X156464130Y-66361207D01*
X156552546Y-66147753D01*
X156612343Y-65924585D01*
X156642500Y-65695520D01*
X156642500Y-65464480D01*
X156612343Y-65235415D01*
X156552546Y-65012247D01*
X156472875Y-64819904D01*
X156464135Y-64798804D01*
X156464128Y-64798789D01*
X156348610Y-64598706D01*
X156207962Y-64415410D01*
X156190235Y-64397683D01*
X156156748Y-64336361D01*
X156161731Y-64266669D01*
X156190235Y-64222317D01*
X156207961Y-64204591D01*
X156348610Y-64021294D01*
X156464130Y-63821207D01*
X156552546Y-63607753D01*
X156612343Y-63384585D01*
X156642500Y-63155520D01*
X156642500Y-62924480D01*
X156612343Y-62695415D01*
X156552546Y-62472247D01*
X156479088Y-62294904D01*
X156464135Y-62258804D01*
X156464128Y-62258789D01*
X156348610Y-62058706D01*
X156207962Y-61875410D01*
X156190235Y-61857683D01*
X156156748Y-61796361D01*
X156161731Y-61726669D01*
X156190235Y-61682317D01*
X156207961Y-61664591D01*
X156348610Y-61481294D01*
X156464130Y-61281207D01*
X156552546Y-61067753D01*
X156612343Y-60844585D01*
X156642500Y-60615520D01*
X156642500Y-60384480D01*
X156612343Y-60155415D01*
X156552546Y-59932247D01*
X156492721Y-59787817D01*
X156464135Y-59718804D01*
X156464128Y-59718789D01*
X156348610Y-59518706D01*
X156207962Y-59335410D01*
X156190235Y-59317683D01*
X156156748Y-59256361D01*
X156161731Y-59186669D01*
X156190235Y-59142317D01*
X156207961Y-59124591D01*
X156348610Y-58941294D01*
X156464130Y-58741207D01*
X156552546Y-58527753D01*
X156612343Y-58304585D01*
X156642500Y-58075520D01*
X156642500Y-57844480D01*
X156612343Y-57615415D01*
X156552546Y-57392247D01*
X156483612Y-57225826D01*
X156464135Y-57178804D01*
X156464128Y-57178789D01*
X156348610Y-56978706D01*
X156207962Y-56795410D01*
X156190235Y-56777683D01*
X156156748Y-56716361D01*
X156161731Y-56646669D01*
X156190235Y-56602317D01*
X156207961Y-56584591D01*
X156348610Y-56401294D01*
X156464130Y-56201207D01*
X156465666Y-56197500D01*
X156471334Y-56183815D01*
X156552546Y-55987753D01*
X156612343Y-55764585D01*
X156642500Y-55535520D01*
X156642500Y-55304480D01*
X156612343Y-55075415D01*
X156552546Y-54852247D01*
X156492604Y-54707534D01*
X156464135Y-54638804D01*
X156464128Y-54638789D01*
X156348610Y-54438706D01*
X156207962Y-54255410D01*
X156190235Y-54237683D01*
X156156748Y-54176361D01*
X156161731Y-54106669D01*
X156190235Y-54062317D01*
X156207961Y-54044591D01*
X156348610Y-53861294D01*
X156464130Y-53661207D01*
X156552546Y-53447753D01*
X156612343Y-53224585D01*
X156642500Y-52995520D01*
X156642500Y-52764486D01*
X168357500Y-52764486D01*
X168357500Y-52995513D01*
X168357501Y-52995529D01*
X168387655Y-53224574D01*
X168387656Y-53224579D01*
X168387657Y-53224585D01*
X168387658Y-53224587D01*
X168447454Y-53447753D01*
X168535864Y-53661195D01*
X168535871Y-53661210D01*
X168651389Y-53861293D01*
X168792037Y-54044589D01*
X168792043Y-54044596D01*
X168955403Y-54207956D01*
X168955410Y-54207962D01*
X169051703Y-54281850D01*
X169063898Y-54292545D01*
X169151718Y-54380365D01*
X169327990Y-54501114D01*
X169523449Y-54587417D01*
X169642772Y-54615481D01*
X169702059Y-54648505D01*
X170035906Y-54982352D01*
X169948429Y-55005792D01*
X169847070Y-55064311D01*
X169764311Y-55147070D01*
X169705792Y-55248429D01*
X169682352Y-55335905D01*
X169067730Y-54721282D01*
X169067729Y-54721283D01*
X169040643Y-54758564D01*
X168950457Y-54935562D01*
X168889075Y-55124476D01*
X168889075Y-55124479D01*
X168858000Y-55320678D01*
X168858000Y-55519321D01*
X168889075Y-55715520D01*
X168889075Y-55715523D01*
X168950457Y-55904437D01*
X169040641Y-56081432D01*
X169067730Y-56118715D01*
X169067731Y-56118716D01*
X169682352Y-55504094D01*
X169705792Y-55591571D01*
X169764311Y-55692930D01*
X169847070Y-55775689D01*
X169948429Y-55834208D01*
X170035904Y-55857647D01*
X169702059Y-56191493D01*
X169642769Y-56224518D01*
X169523455Y-56252581D01*
X169523451Y-56252582D01*
X169523449Y-56252583D01*
X169381356Y-56315323D01*
X169327988Y-56338887D01*
X169151719Y-56459634D01*
X169151713Y-56459639D01*
X169063892Y-56547459D01*
X169051699Y-56558152D01*
X168955413Y-56632035D01*
X168955411Y-56632037D01*
X168792036Y-56795411D01*
X168651389Y-56978706D01*
X168535871Y-57178789D01*
X168535864Y-57178804D01*
X168447454Y-57392246D01*
X168387658Y-57615412D01*
X168387655Y-57615425D01*
X168357501Y-57844470D01*
X168357500Y-57844486D01*
X168357500Y-58075513D01*
X168357501Y-58075529D01*
X168387655Y-58304574D01*
X168387656Y-58304579D01*
X168387657Y-58304585D01*
X168409119Y-58384683D01*
X168447454Y-58527753D01*
X168535864Y-58741195D01*
X168535871Y-58741210D01*
X168651389Y-58941293D01*
X168792037Y-59124589D01*
X168792043Y-59124596D01*
X168809766Y-59142319D01*
X168843251Y-59203642D01*
X168838267Y-59273334D01*
X168809766Y-59317681D01*
X168792043Y-59335403D01*
X168792037Y-59335410D01*
X168651389Y-59518706D01*
X168535871Y-59718789D01*
X168535864Y-59718804D01*
X168447454Y-59932246D01*
X168387658Y-60155412D01*
X168387655Y-60155425D01*
X168357501Y-60384470D01*
X168357500Y-60384486D01*
X168357500Y-60615513D01*
X168357501Y-60615529D01*
X168387655Y-60844574D01*
X168387656Y-60844579D01*
X168387657Y-60844585D01*
X168387658Y-60844587D01*
X168447454Y-61067753D01*
X168535864Y-61281195D01*
X168535871Y-61281210D01*
X168651389Y-61481293D01*
X168792037Y-61664589D01*
X168792043Y-61664596D01*
X168809766Y-61682319D01*
X168843251Y-61743642D01*
X168838267Y-61813334D01*
X168809766Y-61857681D01*
X168792043Y-61875403D01*
X168792037Y-61875410D01*
X168651389Y-62058706D01*
X168535871Y-62258789D01*
X168535864Y-62258804D01*
X168447454Y-62472246D01*
X168422930Y-62563771D01*
X168393035Y-62675346D01*
X168387658Y-62695412D01*
X168387655Y-62695425D01*
X168357501Y-62924470D01*
X168357500Y-62924486D01*
X168357500Y-63155513D01*
X168357501Y-63155529D01*
X168387655Y-63384574D01*
X168387656Y-63384579D01*
X168387657Y-63384585D01*
X168445854Y-63601782D01*
X168447454Y-63607753D01*
X168535864Y-63821195D01*
X168535871Y-63821210D01*
X168651389Y-64021293D01*
X168792037Y-64204589D01*
X168792043Y-64204596D01*
X168809766Y-64222319D01*
X168843251Y-64283642D01*
X168838267Y-64353334D01*
X168809766Y-64397681D01*
X168792043Y-64415403D01*
X168792037Y-64415410D01*
X168651389Y-64598706D01*
X168535871Y-64798789D01*
X168535864Y-64798804D01*
X168447454Y-65012246D01*
X168387658Y-65235412D01*
X168387655Y-65235425D01*
X168357501Y-65464470D01*
X168357500Y-65464486D01*
X168357500Y-65695513D01*
X168357501Y-65695529D01*
X168387655Y-65924574D01*
X168387656Y-65924579D01*
X168387657Y-65924585D01*
X168435136Y-66101782D01*
X168447454Y-66147753D01*
X168535864Y-66361195D01*
X168535871Y-66361210D01*
X168651389Y-66561293D01*
X168792037Y-66744589D01*
X168792043Y-66744596D01*
X168809766Y-66762319D01*
X168843251Y-66823642D01*
X168838267Y-66893334D01*
X168809766Y-66937681D01*
X168792043Y-66955403D01*
X168792037Y-66955410D01*
X168651389Y-67138706D01*
X168535871Y-67338789D01*
X168535864Y-67338804D01*
X168447454Y-67552246D01*
X168387658Y-67775412D01*
X168387655Y-67775425D01*
X168357501Y-68004470D01*
X168357500Y-68004486D01*
X168357500Y-68235513D01*
X168357501Y-68235529D01*
X168387655Y-68464574D01*
X168387656Y-68464579D01*
X168387657Y-68464585D01*
X168409476Y-68546016D01*
X168447454Y-68687753D01*
X168535864Y-68901195D01*
X168535871Y-68901210D01*
X168651389Y-69101293D01*
X168792037Y-69284589D01*
X168792043Y-69284596D01*
X168955403Y-69447956D01*
X168955410Y-69447962D01*
X169051703Y-69521850D01*
X169063895Y-69532542D01*
X169151718Y-69620365D01*
X169327990Y-69741114D01*
X169523449Y-69827417D01*
X169523455Y-69827418D01*
X169523457Y-69827419D01*
X169731427Y-69876334D01*
X169731430Y-69876334D01*
X169731437Y-69876336D01*
X169820243Y-69882500D01*
X169979811Y-69882499D01*
X169979817Y-69882500D01*
X170004480Y-69882500D01*
X170260183Y-69882500D01*
X170260187Y-69882499D01*
X172089760Y-69882499D01*
X172148960Y-69878390D01*
X172178563Y-69876336D01*
X172178564Y-69876335D01*
X172178570Y-69876335D01*
X172386542Y-69827419D01*
X172386540Y-69827419D01*
X172386551Y-69827417D01*
X172582010Y-69741114D01*
X172758282Y-69620365D01*
X172909365Y-69469282D01*
X173030114Y-69293010D01*
X173116417Y-69097551D01*
X173165336Y-68889563D01*
X173171500Y-68800757D01*
X173171499Y-67439244D01*
X173165336Y-67350437D01*
X173165335Y-67350436D01*
X173165335Y-67350429D01*
X173116419Y-67142457D01*
X173116417Y-67142451D01*
X173116417Y-67142449D01*
X173030114Y-66946990D01*
X173011676Y-66920073D01*
X172990031Y-66853645D01*
X173007736Y-66786056D01*
X173011660Y-66779948D01*
X173030114Y-66753010D01*
X173116417Y-66557551D01*
X173165336Y-66349563D01*
X173171500Y-66260757D01*
X173171500Y-65995777D01*
X174954500Y-65995777D01*
X174954500Y-67324208D01*
X174954501Y-67324223D01*
X174964904Y-67456413D01*
X174964905Y-67456420D01*
X175019902Y-67674678D01*
X175019903Y-67674681D01*
X175112991Y-67879622D01*
X175112997Y-67879632D01*
X175241174Y-68064645D01*
X175241178Y-68064650D01*
X175241181Y-68064654D01*
X175400346Y-68223819D01*
X175400350Y-68223822D01*
X175400354Y-68223825D01*
X175417225Y-68235513D01*
X175585374Y-68352007D01*
X175790317Y-68445096D01*
X175790321Y-68445097D01*
X176008579Y-68500094D01*
X176008581Y-68500094D01*
X176008588Y-68500096D01*
X176140783Y-68510500D01*
X177769216Y-68510499D01*
X177901412Y-68500096D01*
X178008039Y-68473228D01*
X178077854Y-68475935D01*
X178135124Y-68515958D01*
X178152897Y-68546016D01*
X178201295Y-68662860D01*
X178294373Y-68802162D01*
X178412837Y-68920626D01*
X178505494Y-68982537D01*
X178552137Y-69013703D01*
X178706918Y-69077816D01*
X178824946Y-69101293D01*
X178871228Y-69110499D01*
X178871232Y-69110500D01*
X178871233Y-69110500D01*
X179038768Y-69110500D01*
X179038769Y-69110499D01*
X179203082Y-69077816D01*
X179357863Y-69013703D01*
X179497162Y-68920626D01*
X179615626Y-68802162D01*
X179708703Y-68662863D01*
X179772816Y-68508082D01*
X179805500Y-68343767D01*
X179805500Y-68176233D01*
X179772816Y-68011918D01*
X179708703Y-67857137D01*
X179653567Y-67774620D01*
X179615626Y-67717837D01*
X179497162Y-67599373D01*
X179357860Y-67506295D01*
X179203082Y-67442184D01*
X179203076Y-67442182D01*
X179055307Y-67412789D01*
X178993397Y-67380404D01*
X178958822Y-67319688D01*
X178955499Y-67291180D01*
X178955499Y-65995784D01*
X178945096Y-65863588D01*
X178922019Y-65772007D01*
X178890097Y-65645321D01*
X178890096Y-65645318D01*
X178889415Y-65643819D01*
X178797007Y-65440374D01*
X178765297Y-65394603D01*
X178668825Y-65255354D01*
X178668822Y-65255350D01*
X178668819Y-65255346D01*
X178509654Y-65096181D01*
X178509650Y-65096178D01*
X178509645Y-65096174D01*
X178324632Y-64967997D01*
X178324630Y-64967996D01*
X178324626Y-64967993D01*
X178324620Y-64967990D01*
X178321812Y-64966397D01*
X178320771Y-64965322D01*
X178320048Y-64964821D01*
X178320147Y-64964677D01*
X178273217Y-64916196D01*
X178259476Y-64847690D01*
X178272516Y-64802249D01*
X178356094Y-64638219D01*
X178421757Y-64436129D01*
X178421757Y-64436126D01*
X178432231Y-64370000D01*
X177388012Y-64370000D01*
X177420925Y-64312993D01*
X177455000Y-64185826D01*
X177455000Y-64054174D01*
X177420925Y-63927007D01*
X177388012Y-63870000D01*
X178432231Y-63870000D01*
X178421757Y-63803873D01*
X178421757Y-63803870D01*
X178356095Y-63601782D01*
X178259620Y-63412442D01*
X178134727Y-63240540D01*
X178134723Y-63240535D01*
X177984464Y-63090276D01*
X177984459Y-63090272D01*
X177812557Y-62965379D01*
X177623217Y-62868904D01*
X177421129Y-62803242D01*
X177211246Y-62770000D01*
X177205000Y-62770000D01*
X177205000Y-63686988D01*
X177147993Y-63654075D01*
X177020826Y-63620000D01*
X176889174Y-63620000D01*
X176762007Y-63654075D01*
X176705000Y-63686988D01*
X176705000Y-62770000D01*
X176698754Y-62770000D01*
X176488872Y-62803242D01*
X176488869Y-62803242D01*
X176286782Y-62868904D01*
X176097442Y-62965379D01*
X175925540Y-63090272D01*
X175925535Y-63090276D01*
X175775276Y-63240535D01*
X175775272Y-63240540D01*
X175650379Y-63412442D01*
X175553904Y-63601782D01*
X175488242Y-63803870D01*
X175488242Y-63803873D01*
X175477769Y-63870000D01*
X176521988Y-63870000D01*
X176489075Y-63927007D01*
X176455000Y-64054174D01*
X176455000Y-64185826D01*
X176489075Y-64312993D01*
X176521988Y-64370000D01*
X175477769Y-64370000D01*
X175488242Y-64436126D01*
X175488242Y-64436129D01*
X175553904Y-64638217D01*
X175637483Y-64802249D01*
X175650379Y-64870918D01*
X175624103Y-64935659D01*
X175588202Y-64966387D01*
X175585373Y-64967992D01*
X175400354Y-65096174D01*
X175400342Y-65096184D01*
X175241184Y-65255342D01*
X175241174Y-65255354D01*
X175112997Y-65440367D01*
X175112991Y-65440377D01*
X175019903Y-65645318D01*
X175019902Y-65645321D01*
X174964905Y-65863579D01*
X174964904Y-65863586D01*
X174954500Y-65995777D01*
X173171500Y-65995777D01*
X173171499Y-65484657D01*
X173171499Y-64899239D01*
X173165336Y-64810438D01*
X173165335Y-64810429D01*
X173116419Y-64602457D01*
X173116417Y-64602451D01*
X173116417Y-64602449D01*
X173030114Y-64406990D01*
X173011676Y-64380073D01*
X172990031Y-64313645D01*
X173007736Y-64246056D01*
X173011660Y-64239948D01*
X173030114Y-64213010D01*
X173116417Y-64017551D01*
X173119894Y-64002767D01*
X173149082Y-63878674D01*
X173165334Y-63809573D01*
X173165334Y-63809569D01*
X173165336Y-63809563D01*
X173171500Y-63720757D01*
X173171499Y-62359244D01*
X173165336Y-62270437D01*
X173165335Y-62270436D01*
X173165335Y-62270429D01*
X173116419Y-62062457D01*
X173116417Y-62062451D01*
X173116417Y-62062449D01*
X173030114Y-61866990D01*
X173011676Y-61840073D01*
X172990031Y-61773645D01*
X173007736Y-61706056D01*
X173011660Y-61699948D01*
X173030114Y-61673010D01*
X173116417Y-61477551D01*
X173165336Y-61269563D01*
X173171500Y-61180757D01*
X173171499Y-59819244D01*
X173165336Y-59730437D01*
X173165335Y-59730436D01*
X173165335Y-59730429D01*
X173116419Y-59522457D01*
X173116417Y-59522451D01*
X173116417Y-59522449D01*
X173030114Y-59326990D01*
X173011676Y-59300073D01*
X172990031Y-59233645D01*
X173007736Y-59166056D01*
X173011660Y-59159948D01*
X173030114Y-59133010D01*
X173116417Y-58937551D01*
X173165336Y-58729563D01*
X173171500Y-58640757D01*
X173171499Y-57279244D01*
X173165336Y-57190437D01*
X173165335Y-57190436D01*
X173165335Y-57190429D01*
X173116419Y-56982457D01*
X173116417Y-56982451D01*
X173116417Y-56982449D01*
X173030114Y-56786990D01*
X173020820Y-56773423D01*
X173020819Y-56773420D01*
X172974482Y-56705777D01*
X174929500Y-56705777D01*
X174929500Y-58034208D01*
X174929501Y-58034223D01*
X174939904Y-58166413D01*
X174939905Y-58166420D01*
X174994902Y-58384678D01*
X174994903Y-58384681D01*
X175087991Y-58589622D01*
X175087997Y-58589632D01*
X175216174Y-58774645D01*
X175216178Y-58774650D01*
X175216181Y-58774654D01*
X175375346Y-58933819D01*
X175375350Y-58933822D01*
X175375354Y-58933825D01*
X175386135Y-58941294D01*
X175560374Y-59062007D01*
X175765317Y-59155096D01*
X175765321Y-59155097D01*
X175983579Y-59210094D01*
X175983581Y-59210094D01*
X175983588Y-59210096D01*
X176115783Y-59220500D01*
X177744216Y-59220499D01*
X177876412Y-59210096D01*
X177983039Y-59183228D01*
X178052854Y-59185935D01*
X178110124Y-59225958D01*
X178127897Y-59256016D01*
X178176295Y-59372860D01*
X178269373Y-59512162D01*
X178387837Y-59630626D01*
X178480494Y-59692537D01*
X178527137Y-59723703D01*
X178527138Y-59723703D01*
X178527139Y-59723704D01*
X178543406Y-59730442D01*
X178681918Y-59787816D01*
X178839914Y-59819243D01*
X178846228Y-59820499D01*
X178846232Y-59820500D01*
X178846233Y-59820500D01*
X179013768Y-59820500D01*
X179013769Y-59820499D01*
X179178082Y-59787816D01*
X179332863Y-59723703D01*
X179472162Y-59630626D01*
X179590626Y-59512162D01*
X179683703Y-59372863D01*
X179747816Y-59218082D01*
X179780500Y-59053767D01*
X179780500Y-58886233D01*
X179747816Y-58721918D01*
X179683703Y-58567137D01*
X179627447Y-58482944D01*
X179590626Y-58427837D01*
X179472162Y-58309373D01*
X179332860Y-58216295D01*
X179178082Y-58152184D01*
X179178076Y-58152182D01*
X179030307Y-58122789D01*
X178968397Y-58090404D01*
X178933822Y-58029688D01*
X178930499Y-58001180D01*
X178930499Y-56705784D01*
X178920096Y-56573588D01*
X178916206Y-56558152D01*
X178865097Y-56355321D01*
X178865096Y-56355318D01*
X178862858Y-56350391D01*
X178772007Y-56150374D01*
X178737634Y-56100760D01*
X178643825Y-55965354D01*
X178643822Y-55965350D01*
X178643819Y-55965346D01*
X178484654Y-55806181D01*
X178484650Y-55806178D01*
X178484645Y-55806174D01*
X178299632Y-55677997D01*
X178299630Y-55677996D01*
X178299626Y-55677993D01*
X178299620Y-55677990D01*
X178296812Y-55676397D01*
X178295771Y-55675322D01*
X178295048Y-55674821D01*
X178295147Y-55674677D01*
X178248217Y-55626196D01*
X178234476Y-55557690D01*
X178247516Y-55512249D01*
X178331094Y-55348219D01*
X178396757Y-55146129D01*
X178396757Y-55146126D01*
X178407231Y-55080000D01*
X177363012Y-55080000D01*
X177395925Y-55022993D01*
X177430000Y-54895826D01*
X177430000Y-54764174D01*
X177395925Y-54637007D01*
X177363012Y-54580000D01*
X178407231Y-54580000D01*
X178396757Y-54513873D01*
X178396757Y-54513870D01*
X178331095Y-54311782D01*
X178234620Y-54122442D01*
X178109727Y-53950540D01*
X178109723Y-53950535D01*
X177959464Y-53800276D01*
X177959459Y-53800272D01*
X177787557Y-53675379D01*
X177598217Y-53578904D01*
X177396129Y-53513242D01*
X177186246Y-53480000D01*
X177180000Y-53480000D01*
X177180000Y-54396988D01*
X177122993Y-54364075D01*
X176995826Y-54330000D01*
X176864174Y-54330000D01*
X176737007Y-54364075D01*
X176680000Y-54396988D01*
X176680000Y-53480000D01*
X176673754Y-53480000D01*
X176463872Y-53513242D01*
X176463869Y-53513242D01*
X176261782Y-53578904D01*
X176072442Y-53675379D01*
X175900540Y-53800272D01*
X175900535Y-53800276D01*
X175750276Y-53950535D01*
X175750272Y-53950540D01*
X175625379Y-54122442D01*
X175528904Y-54311782D01*
X175463242Y-54513870D01*
X175463242Y-54513873D01*
X175452769Y-54580000D01*
X176496988Y-54580000D01*
X176464075Y-54637007D01*
X176430000Y-54764174D01*
X176430000Y-54895826D01*
X176464075Y-55022993D01*
X176496988Y-55080000D01*
X175452769Y-55080000D01*
X175463242Y-55146126D01*
X175463242Y-55146129D01*
X175528904Y-55348217D01*
X175612483Y-55512249D01*
X175625379Y-55580918D01*
X175599103Y-55645659D01*
X175563202Y-55676387D01*
X175560373Y-55677992D01*
X175375354Y-55806174D01*
X175375342Y-55806184D01*
X175216184Y-55965342D01*
X175216174Y-55965354D01*
X175087997Y-56150367D01*
X175087991Y-56150377D01*
X174994903Y-56355318D01*
X174994902Y-56355321D01*
X174939905Y-56573579D01*
X174939904Y-56573586D01*
X174929500Y-56705777D01*
X172974482Y-56705777D01*
X172909371Y-56610726D01*
X172909368Y-56610722D01*
X172909365Y-56610718D01*
X172758282Y-56459635D01*
X172758281Y-56459634D01*
X172758277Y-56459630D01*
X172677822Y-56404517D01*
X172633639Y-56350391D01*
X172625733Y-56280970D01*
X172628823Y-56267623D01*
X172668088Y-56132473D01*
X172668089Y-56132467D01*
X172670999Y-56095488D01*
X172670999Y-54744530D01*
X172670998Y-54744508D01*
X172668089Y-54707534D01*
X172651856Y-54651659D01*
X172651856Y-54651658D01*
X172628823Y-54572375D01*
X172629022Y-54502505D01*
X172666964Y-54443835D01*
X172677815Y-54435485D01*
X172758282Y-54380365D01*
X172909365Y-54229282D01*
X173030114Y-54053010D01*
X173116417Y-53857551D01*
X173165336Y-53649563D01*
X173171500Y-53560757D01*
X173171499Y-52199244D01*
X173169871Y-52175789D01*
X173165336Y-52110438D01*
X173165335Y-52110429D01*
X173116419Y-51902457D01*
X173116417Y-51902451D01*
X173116417Y-51902449D01*
X173030114Y-51706990D01*
X172909365Y-51530718D01*
X172758282Y-51379635D01*
X172582010Y-51258886D01*
X172386551Y-51172583D01*
X172386549Y-51172582D01*
X172386548Y-51172582D01*
X172386542Y-51172580D01*
X172178572Y-51123665D01*
X172178557Y-51123663D01*
X172089761Y-51117500D01*
X172089757Y-51117500D01*
X170235526Y-51117500D01*
X170235520Y-51117500D01*
X170004480Y-51117500D01*
X170004473Y-51117500D01*
X169820240Y-51117500D01*
X169731438Y-51123663D01*
X169731429Y-51123664D01*
X169523457Y-51172580D01*
X169523451Y-51172582D01*
X169327988Y-51258887D01*
X169151719Y-51379634D01*
X169151713Y-51379639D01*
X169063892Y-51467459D01*
X169051699Y-51478152D01*
X168955413Y-51552035D01*
X168955411Y-51552037D01*
X168792036Y-51715411D01*
X168651389Y-51898706D01*
X168535871Y-52098789D01*
X168535864Y-52098804D01*
X168447454Y-52312246D01*
X168387658Y-52535412D01*
X168387655Y-52535425D01*
X168357501Y-52764470D01*
X168357500Y-52764486D01*
X156642500Y-52764486D01*
X156642500Y-52764480D01*
X156612343Y-52535415D01*
X156552546Y-52312247D01*
X156491904Y-52165845D01*
X156464135Y-52098804D01*
X156464128Y-52098789D01*
X156348610Y-51898706D01*
X156207962Y-51715410D01*
X156207956Y-51715403D01*
X156044596Y-51552043D01*
X156016798Y-51530713D01*
X155948291Y-51478145D01*
X155936097Y-51467450D01*
X155848286Y-51379639D01*
X155848282Y-51379635D01*
X155672010Y-51258886D01*
X155476551Y-51172583D01*
X155476549Y-51172582D01*
X155476548Y-51172582D01*
X155476542Y-51172580D01*
X155268572Y-51123665D01*
X155268557Y-51123663D01*
X155179761Y-51117500D01*
X155179757Y-51117500D01*
X154995520Y-51117500D01*
X154764480Y-51117500D01*
X154764478Y-51117500D01*
X152910239Y-51117500D01*
X152821438Y-51123663D01*
X152821429Y-51123664D01*
X152613457Y-51172580D01*
X152613451Y-51172582D01*
X152417988Y-51258887D01*
X152241719Y-51379634D01*
X152241713Y-51379639D01*
X152090639Y-51530713D01*
X152090634Y-51530719D01*
X151969887Y-51706988D01*
X151883582Y-51902451D01*
X151883580Y-51902457D01*
X151834665Y-52110427D01*
X151834663Y-52110442D01*
X151828500Y-52199239D01*
X146713279Y-52199239D01*
X146563771Y-52169500D01*
X146563767Y-52169500D01*
X146396233Y-52169500D01*
X146396228Y-52169500D01*
X146231925Y-52202182D01*
X146231917Y-52202184D01*
X146077139Y-52266295D01*
X145937837Y-52359373D01*
X145819373Y-52477837D01*
X145726295Y-52617139D01*
X145662184Y-52771917D01*
X145662182Y-52771925D01*
X145629500Y-52936228D01*
X134720596Y-52936228D01*
X134674313Y-52836975D01*
X134572906Y-52619506D01*
X134572898Y-52619491D01*
X134524362Y-52535425D01*
X134348026Y-52230002D01*
X134348018Y-52229991D01*
X134348014Y-52229984D01*
X134090058Y-51861585D01*
X133830321Y-51552043D01*
X133800965Y-51517058D01*
X133482942Y-51199035D01*
X133401206Y-51130450D01*
X133138419Y-50909945D01*
X132875825Y-50726075D01*
X132832201Y-50671498D01*
X132825008Y-50601999D01*
X132856530Y-50539645D01*
X132916760Y-50504231D01*
X132946949Y-50500500D01*
X192053051Y-50500500D01*
X192120090Y-50520185D01*
G37*
G04 #@! TD.AperFunction*
M02*
