M48
; DRILL file {KiCad 9.0.0-9.0.0-2~ubuntu24.04.1} date 2025-03-14T16:11:10-0400
; FORMAT={-:-/ absolute / metric / decimal}
; #@! TF.CreationDate,2025-03-14T16:11:10-04:00
; #@! TF.GenerationSoftware,Kicad,Pcbnew,9.0.0-9.0.0-2~ubuntu24.04.1
; #@! TF.FileFunction,Plated,1,2,PTH
FMAT,2
METRIC
; #@! TA.AperFunction,Plated,PTH,ComponentDrill
T1C0.889
; #@! TA.AperFunction,Plated,PTH,ComponentDrill
T2C1.000
%
G90
G05
T1
X154.88Y-52.88
X154.88Y-55.42
X154.88Y-57.96
X154.88Y-60.5
X154.88Y-63.04
X154.88Y-65.58
X154.88Y-68.12
X170.12Y-52.88
X170.12Y-55.42
X170.12Y-57.96
X170.12Y-60.5
X170.12Y-63.04
X170.12Y-65.58
X170.12Y-68.12
T2
X148.455Y-64.08
X148.455Y-66.62
X148.48Y-54.62
X148.48Y-57.16
X148.5Y-73.5
X148.5Y-76.04
X176.93Y-54.83
X176.93Y-57.37
X176.955Y-64.12
X176.955Y-66.66
M30
