%TF.GenerationSoftware,KiCad,Pcbnew,9.0.0-9.0.0-2~ubuntu24.04.1*%
%TF.CreationDate,2025-03-14T16:11:10-04:00*%
%TF.ProjectId,RiftBox,52696674-426f-4782-9e6b-696361645f70,rev?*%
%TF.SameCoordinates,Original*%
%TF.FileFunction,Drillmap*%
%TF.FilePolarity,Positive*%
%FSLAX45Y45*%
G04 Gerber Fmt 4.5, Leading zero omitted, Abs format (unit mm)*
G04 Created by KiCad (PCBNEW 9.0.0-9.0.0-2~ubuntu24.04.1) date 2025-03-14 16:11:10*
%MOMM*%
%LPD*%
G01*
G04 APERTURE LIST*
%ADD10C,0.050000*%
%ADD11C,0.200000*%
%ADD12C,0.120000*%
%ADD13C,0.430000*%
G04 APERTURE END LIST*
D10*
X12500000Y-5000000D02*
X20000000Y-5000000D01*
X20000000Y-8500000D01*
X12500000Y-8500000D01*
X12500000Y-5000000D01*
D11*
D12*
X14585500Y-6188000D02*
X14705500Y-6308000D01*
X14705500Y-6188000D02*
X14585500Y-6308000D01*
X14588000Y-5242000D02*
X14708000Y-5362000D01*
X14708000Y-5242000D02*
X14588000Y-5362000D01*
X14590000Y-7130000D02*
X14710000Y-7250000D01*
X14710000Y-7130000D02*
X14590000Y-7250000D01*
X17833000Y-5837000D02*
X17953000Y-5957000D01*
X17953000Y-5837000D02*
X17833000Y-5957000D01*
X17835500Y-6766000D02*
X17955500Y-6886000D01*
X17955500Y-6766000D02*
X17835500Y-6886000D01*
D13*
X13215000Y-5500000D02*
G75*
G02*
X12785000Y-5500000I-215000J0D01*
G01*
X12785000Y-5500000D02*
G75*
G02*
X13215000Y-5500000I215000J0D01*
G01*
X13215000Y-8000000D02*
G75*
G02*
X12785000Y-8000000I-215000J0D01*
G01*
X12785000Y-8000000D02*
G75*
G02*
X13215000Y-8000000I215000J0D01*
G01*
X19715000Y-5500000D02*
G75*
G02*
X19285000Y-5500000I-215000J0D01*
G01*
X19285000Y-5500000D02*
G75*
G02*
X19715000Y-5500000I215000J0D01*
G01*
X19715000Y-8000000D02*
G75*
G02*
X19285000Y-8000000I-215000J0D01*
G01*
X19285000Y-8000000D02*
G75*
G02*
X19715000Y-8000000I215000J0D01*
G01*
D11*
X12758277Y-8813984D02*
X12758277Y-8613984D01*
X12758277Y-8613984D02*
X12805896Y-8613984D01*
X12805896Y-8613984D02*
X12834467Y-8623508D01*
X12834467Y-8623508D02*
X12853515Y-8642555D01*
X12853515Y-8642555D02*
X12863039Y-8661603D01*
X12863039Y-8661603D02*
X12872562Y-8699698D01*
X12872562Y-8699698D02*
X12872562Y-8728270D01*
X12872562Y-8728270D02*
X12863039Y-8766365D01*
X12863039Y-8766365D02*
X12853515Y-8785412D01*
X12853515Y-8785412D02*
X12834467Y-8804460D01*
X12834467Y-8804460D02*
X12805896Y-8813984D01*
X12805896Y-8813984D02*
X12758277Y-8813984D01*
X12958277Y-8813984D02*
X12958277Y-8680650D01*
X12958277Y-8718746D02*
X12967801Y-8699698D01*
X12967801Y-8699698D02*
X12977324Y-8690174D01*
X12977324Y-8690174D02*
X12996372Y-8680650D01*
X12996372Y-8680650D02*
X13015420Y-8680650D01*
X13082086Y-8813984D02*
X13082086Y-8680650D01*
X13082086Y-8613984D02*
X13072562Y-8623508D01*
X13072562Y-8623508D02*
X13082086Y-8633031D01*
X13082086Y-8633031D02*
X13091610Y-8623508D01*
X13091610Y-8623508D02*
X13082086Y-8613984D01*
X13082086Y-8613984D02*
X13082086Y-8633031D01*
X13205896Y-8813984D02*
X13186848Y-8804460D01*
X13186848Y-8804460D02*
X13177324Y-8785412D01*
X13177324Y-8785412D02*
X13177324Y-8613984D01*
X13310658Y-8813984D02*
X13291610Y-8804460D01*
X13291610Y-8804460D02*
X13282086Y-8785412D01*
X13282086Y-8785412D02*
X13282086Y-8613984D01*
X13539229Y-8813984D02*
X13539229Y-8613984D01*
X13539229Y-8613984D02*
X13605896Y-8756841D01*
X13605896Y-8756841D02*
X13672562Y-8613984D01*
X13672562Y-8613984D02*
X13672562Y-8813984D01*
X13853515Y-8813984D02*
X13853515Y-8709222D01*
X13853515Y-8709222D02*
X13843991Y-8690174D01*
X13843991Y-8690174D02*
X13824943Y-8680650D01*
X13824943Y-8680650D02*
X13786848Y-8680650D01*
X13786848Y-8680650D02*
X13767801Y-8690174D01*
X13853515Y-8804460D02*
X13834467Y-8813984D01*
X13834467Y-8813984D02*
X13786848Y-8813984D01*
X13786848Y-8813984D02*
X13767801Y-8804460D01*
X13767801Y-8804460D02*
X13758277Y-8785412D01*
X13758277Y-8785412D02*
X13758277Y-8766365D01*
X13758277Y-8766365D02*
X13767801Y-8747317D01*
X13767801Y-8747317D02*
X13786848Y-8737793D01*
X13786848Y-8737793D02*
X13834467Y-8737793D01*
X13834467Y-8737793D02*
X13853515Y-8728270D01*
X13948753Y-8680650D02*
X13948753Y-8880650D01*
X13948753Y-8690174D02*
X13967801Y-8680650D01*
X13967801Y-8680650D02*
X14005896Y-8680650D01*
X14005896Y-8680650D02*
X14024943Y-8690174D01*
X14024943Y-8690174D02*
X14034467Y-8699698D01*
X14034467Y-8699698D02*
X14043991Y-8718746D01*
X14043991Y-8718746D02*
X14043991Y-8775889D01*
X14043991Y-8775889D02*
X14034467Y-8794936D01*
X14034467Y-8794936D02*
X14024943Y-8804460D01*
X14024943Y-8804460D02*
X14005896Y-8813984D01*
X14005896Y-8813984D02*
X13967801Y-8813984D01*
X13967801Y-8813984D02*
X13948753Y-8804460D01*
X14129705Y-8794936D02*
X14139229Y-8804460D01*
X14139229Y-8804460D02*
X14129705Y-8813984D01*
X14129705Y-8813984D02*
X14120182Y-8804460D01*
X14120182Y-8804460D02*
X14129705Y-8794936D01*
X14129705Y-8794936D02*
X14129705Y-8813984D01*
X14129705Y-8690174D02*
X14139229Y-8699698D01*
X14139229Y-8699698D02*
X14129705Y-8709222D01*
X14129705Y-8709222D02*
X14120182Y-8699698D01*
X14120182Y-8699698D02*
X14129705Y-8690174D01*
X14129705Y-8690174D02*
X14129705Y-8709222D01*
D12*
X12377500Y-9082500D02*
X12497500Y-9202500D01*
X12497500Y-9082500D02*
X12377500Y-9202500D01*
D11*
X12863039Y-9233984D02*
X12748753Y-9233984D01*
X12805896Y-9233984D02*
X12805896Y-9033984D01*
X12805896Y-9033984D02*
X12786848Y-9062555D01*
X12786848Y-9062555D02*
X12767801Y-9081603D01*
X12767801Y-9081603D02*
X12748753Y-9091127D01*
X12948753Y-9214936D02*
X12958277Y-9224460D01*
X12958277Y-9224460D02*
X12948753Y-9233984D01*
X12948753Y-9233984D02*
X12939229Y-9224460D01*
X12939229Y-9224460D02*
X12948753Y-9214936D01*
X12948753Y-9214936D02*
X12948753Y-9233984D01*
X13034467Y-9053031D02*
X13043991Y-9043508D01*
X13043991Y-9043508D02*
X13063039Y-9033984D01*
X13063039Y-9033984D02*
X13110658Y-9033984D01*
X13110658Y-9033984D02*
X13129705Y-9043508D01*
X13129705Y-9043508D02*
X13139229Y-9053031D01*
X13139229Y-9053031D02*
X13148753Y-9072079D01*
X13148753Y-9072079D02*
X13148753Y-9091127D01*
X13148753Y-9091127D02*
X13139229Y-9119698D01*
X13139229Y-9119698D02*
X13024943Y-9233984D01*
X13024943Y-9233984D02*
X13148753Y-9233984D01*
X13272562Y-9033984D02*
X13291610Y-9033984D01*
X13291610Y-9033984D02*
X13310658Y-9043508D01*
X13310658Y-9043508D02*
X13320182Y-9053031D01*
X13320182Y-9053031D02*
X13329705Y-9072079D01*
X13329705Y-9072079D02*
X13339229Y-9110174D01*
X13339229Y-9110174D02*
X13339229Y-9157793D01*
X13339229Y-9157793D02*
X13329705Y-9195889D01*
X13329705Y-9195889D02*
X13320182Y-9214936D01*
X13320182Y-9214936D02*
X13310658Y-9224460D01*
X13310658Y-9224460D02*
X13291610Y-9233984D01*
X13291610Y-9233984D02*
X13272562Y-9233984D01*
X13272562Y-9233984D02*
X13253515Y-9224460D01*
X13253515Y-9224460D02*
X13243991Y-9214936D01*
X13243991Y-9214936D02*
X13234467Y-9195889D01*
X13234467Y-9195889D02*
X13224943Y-9157793D01*
X13224943Y-9157793D02*
X13224943Y-9110174D01*
X13224943Y-9110174D02*
X13234467Y-9072079D01*
X13234467Y-9072079D02*
X13243991Y-9053031D01*
X13243991Y-9053031D02*
X13253515Y-9043508D01*
X13253515Y-9043508D02*
X13272562Y-9033984D01*
X13463039Y-9033984D02*
X13482086Y-9033984D01*
X13482086Y-9033984D02*
X13501134Y-9043508D01*
X13501134Y-9043508D02*
X13510658Y-9053031D01*
X13510658Y-9053031D02*
X13520182Y-9072079D01*
X13520182Y-9072079D02*
X13529705Y-9110174D01*
X13529705Y-9110174D02*
X13529705Y-9157793D01*
X13529705Y-9157793D02*
X13520182Y-9195889D01*
X13520182Y-9195889D02*
X13510658Y-9214936D01*
X13510658Y-9214936D02*
X13501134Y-9224460D01*
X13501134Y-9224460D02*
X13482086Y-9233984D01*
X13482086Y-9233984D02*
X13463039Y-9233984D01*
X13463039Y-9233984D02*
X13443991Y-9224460D01*
X13443991Y-9224460D02*
X13434467Y-9214936D01*
X13434467Y-9214936D02*
X13424943Y-9195889D01*
X13424943Y-9195889D02*
X13415420Y-9157793D01*
X13415420Y-9157793D02*
X13415420Y-9110174D01*
X13415420Y-9110174D02*
X13424943Y-9072079D01*
X13424943Y-9072079D02*
X13434467Y-9053031D01*
X13434467Y-9053031D02*
X13443991Y-9043508D01*
X13443991Y-9043508D02*
X13463039Y-9033984D01*
X13615420Y-9233984D02*
X13615420Y-9100650D01*
X13615420Y-9119698D02*
X13624943Y-9110174D01*
X13624943Y-9110174D02*
X13643991Y-9100650D01*
X13643991Y-9100650D02*
X13672563Y-9100650D01*
X13672563Y-9100650D02*
X13691610Y-9110174D01*
X13691610Y-9110174D02*
X13701134Y-9129222D01*
X13701134Y-9129222D02*
X13701134Y-9233984D01*
X13701134Y-9129222D02*
X13710658Y-9110174D01*
X13710658Y-9110174D02*
X13729705Y-9100650D01*
X13729705Y-9100650D02*
X13758277Y-9100650D01*
X13758277Y-9100650D02*
X13777324Y-9110174D01*
X13777324Y-9110174D02*
X13786848Y-9129222D01*
X13786848Y-9129222D02*
X13786848Y-9233984D01*
X13882086Y-9233984D02*
X13882086Y-9100650D01*
X13882086Y-9119698D02*
X13891610Y-9110174D01*
X13891610Y-9110174D02*
X13910658Y-9100650D01*
X13910658Y-9100650D02*
X13939229Y-9100650D01*
X13939229Y-9100650D02*
X13958277Y-9110174D01*
X13958277Y-9110174D02*
X13967801Y-9129222D01*
X13967801Y-9129222D02*
X13967801Y-9233984D01*
X13967801Y-9129222D02*
X13977324Y-9110174D01*
X13977324Y-9110174D02*
X13996372Y-9100650D01*
X13996372Y-9100650D02*
X14024943Y-9100650D01*
X14024943Y-9100650D02*
X14043991Y-9110174D01*
X14043991Y-9110174D02*
X14053515Y-9129222D01*
X14053515Y-9129222D02*
X14053515Y-9233984D01*
X14443991Y-9024460D02*
X14272563Y-9281603D01*
X14701134Y-9033984D02*
X14720182Y-9033984D01*
X14720182Y-9033984D02*
X14739229Y-9043508D01*
X14739229Y-9043508D02*
X14748753Y-9053031D01*
X14748753Y-9053031D02*
X14758277Y-9072079D01*
X14758277Y-9072079D02*
X14767801Y-9110174D01*
X14767801Y-9110174D02*
X14767801Y-9157793D01*
X14767801Y-9157793D02*
X14758277Y-9195889D01*
X14758277Y-9195889D02*
X14748753Y-9214936D01*
X14748753Y-9214936D02*
X14739229Y-9224460D01*
X14739229Y-9224460D02*
X14720182Y-9233984D01*
X14720182Y-9233984D02*
X14701134Y-9233984D01*
X14701134Y-9233984D02*
X14682086Y-9224460D01*
X14682086Y-9224460D02*
X14672563Y-9214936D01*
X14672563Y-9214936D02*
X14663039Y-9195889D01*
X14663039Y-9195889D02*
X14653515Y-9157793D01*
X14653515Y-9157793D02*
X14653515Y-9110174D01*
X14653515Y-9110174D02*
X14663039Y-9072079D01*
X14663039Y-9072079D02*
X14672563Y-9053031D01*
X14672563Y-9053031D02*
X14682086Y-9043508D01*
X14682086Y-9043508D02*
X14701134Y-9033984D01*
X14853515Y-9214936D02*
X14863039Y-9224460D01*
X14863039Y-9224460D02*
X14853515Y-9233984D01*
X14853515Y-9233984D02*
X14843991Y-9224460D01*
X14843991Y-9224460D02*
X14853515Y-9214936D01*
X14853515Y-9214936D02*
X14853515Y-9233984D01*
X14986848Y-9033984D02*
X15005896Y-9033984D01*
X15005896Y-9033984D02*
X15024944Y-9043508D01*
X15024944Y-9043508D02*
X15034467Y-9053031D01*
X15034467Y-9053031D02*
X15043991Y-9072079D01*
X15043991Y-9072079D02*
X15053515Y-9110174D01*
X15053515Y-9110174D02*
X15053515Y-9157793D01*
X15053515Y-9157793D02*
X15043991Y-9195889D01*
X15043991Y-9195889D02*
X15034467Y-9214936D01*
X15034467Y-9214936D02*
X15024944Y-9224460D01*
X15024944Y-9224460D02*
X15005896Y-9233984D01*
X15005896Y-9233984D02*
X14986848Y-9233984D01*
X14986848Y-9233984D02*
X14967801Y-9224460D01*
X14967801Y-9224460D02*
X14958277Y-9214936D01*
X14958277Y-9214936D02*
X14948753Y-9195889D01*
X14948753Y-9195889D02*
X14939229Y-9157793D01*
X14939229Y-9157793D02*
X14939229Y-9110174D01*
X14939229Y-9110174D02*
X14948753Y-9072079D01*
X14948753Y-9072079D02*
X14958277Y-9053031D01*
X14958277Y-9053031D02*
X14967801Y-9043508D01*
X14967801Y-9043508D02*
X14986848Y-9033984D01*
X15224944Y-9100650D02*
X15224944Y-9233984D01*
X15177325Y-9024460D02*
X15129706Y-9167317D01*
X15129706Y-9167317D02*
X15253515Y-9167317D01*
X15310658Y-9033984D02*
X15443991Y-9033984D01*
X15443991Y-9033984D02*
X15358277Y-9233984D01*
X15510658Y-9053031D02*
X15520182Y-9043508D01*
X15520182Y-9043508D02*
X15539229Y-9033984D01*
X15539229Y-9033984D02*
X15586848Y-9033984D01*
X15586848Y-9033984D02*
X15605896Y-9043508D01*
X15605896Y-9043508D02*
X15615420Y-9053031D01*
X15615420Y-9053031D02*
X15624944Y-9072079D01*
X15624944Y-9072079D02*
X15624944Y-9091127D01*
X15624944Y-9091127D02*
X15615420Y-9119698D01*
X15615420Y-9119698D02*
X15501134Y-9233984D01*
X15501134Y-9233984D02*
X15624944Y-9233984D01*
X15701134Y-9033984D02*
X15701134Y-9072079D01*
X15777325Y-9033984D02*
X15777325Y-9072079D01*
X16072563Y-9310174D02*
X16063039Y-9300650D01*
X16063039Y-9300650D02*
X16043991Y-9272079D01*
X16043991Y-9272079D02*
X16034468Y-9253031D01*
X16034468Y-9253031D02*
X16024944Y-9224460D01*
X16024944Y-9224460D02*
X16015420Y-9176841D01*
X16015420Y-9176841D02*
X16015420Y-9138746D01*
X16015420Y-9138746D02*
X16024944Y-9091127D01*
X16024944Y-9091127D02*
X16034468Y-9062555D01*
X16034468Y-9062555D02*
X16043991Y-9043508D01*
X16043991Y-9043508D02*
X16063039Y-9014936D01*
X16063039Y-9014936D02*
X16072563Y-9005412D01*
X16243991Y-9033984D02*
X16148753Y-9033984D01*
X16148753Y-9033984D02*
X16139229Y-9129222D01*
X16139229Y-9129222D02*
X16148753Y-9119698D01*
X16148753Y-9119698D02*
X16167801Y-9110174D01*
X16167801Y-9110174D02*
X16215420Y-9110174D01*
X16215420Y-9110174D02*
X16234468Y-9119698D01*
X16234468Y-9119698D02*
X16243991Y-9129222D01*
X16243991Y-9129222D02*
X16253515Y-9148270D01*
X16253515Y-9148270D02*
X16253515Y-9195889D01*
X16253515Y-9195889D02*
X16243991Y-9214936D01*
X16243991Y-9214936D02*
X16234468Y-9224460D01*
X16234468Y-9224460D02*
X16215420Y-9233984D01*
X16215420Y-9233984D02*
X16167801Y-9233984D01*
X16167801Y-9233984D02*
X16148753Y-9224460D01*
X16148753Y-9224460D02*
X16139229Y-9214936D01*
X16491610Y-9233984D02*
X16491610Y-9033984D01*
X16577325Y-9233984D02*
X16577325Y-9129222D01*
X16577325Y-9129222D02*
X16567801Y-9110174D01*
X16567801Y-9110174D02*
X16548753Y-9100650D01*
X16548753Y-9100650D02*
X16520182Y-9100650D01*
X16520182Y-9100650D02*
X16501134Y-9110174D01*
X16501134Y-9110174D02*
X16491610Y-9119698D01*
X16701134Y-9233984D02*
X16682087Y-9224460D01*
X16682087Y-9224460D02*
X16672563Y-9214936D01*
X16672563Y-9214936D02*
X16663039Y-9195889D01*
X16663039Y-9195889D02*
X16663039Y-9138746D01*
X16663039Y-9138746D02*
X16672563Y-9119698D01*
X16672563Y-9119698D02*
X16682087Y-9110174D01*
X16682087Y-9110174D02*
X16701134Y-9100650D01*
X16701134Y-9100650D02*
X16729706Y-9100650D01*
X16729706Y-9100650D02*
X16748753Y-9110174D01*
X16748753Y-9110174D02*
X16758277Y-9119698D01*
X16758277Y-9119698D02*
X16767801Y-9138746D01*
X16767801Y-9138746D02*
X16767801Y-9195889D01*
X16767801Y-9195889D02*
X16758277Y-9214936D01*
X16758277Y-9214936D02*
X16748753Y-9224460D01*
X16748753Y-9224460D02*
X16729706Y-9233984D01*
X16729706Y-9233984D02*
X16701134Y-9233984D01*
X16882087Y-9233984D02*
X16863039Y-9224460D01*
X16863039Y-9224460D02*
X16853515Y-9205412D01*
X16853515Y-9205412D02*
X16853515Y-9033984D01*
X17034468Y-9224460D02*
X17015420Y-9233984D01*
X17015420Y-9233984D02*
X16977325Y-9233984D01*
X16977325Y-9233984D02*
X16958277Y-9224460D01*
X16958277Y-9224460D02*
X16948753Y-9205412D01*
X16948753Y-9205412D02*
X16948753Y-9129222D01*
X16948753Y-9129222D02*
X16958277Y-9110174D01*
X16958277Y-9110174D02*
X16977325Y-9100650D01*
X16977325Y-9100650D02*
X17015420Y-9100650D01*
X17015420Y-9100650D02*
X17034468Y-9110174D01*
X17034468Y-9110174D02*
X17043992Y-9129222D01*
X17043992Y-9129222D02*
X17043992Y-9148270D01*
X17043992Y-9148270D02*
X16948753Y-9167317D01*
X17120182Y-9224460D02*
X17139230Y-9233984D01*
X17139230Y-9233984D02*
X17177325Y-9233984D01*
X17177325Y-9233984D02*
X17196373Y-9224460D01*
X17196373Y-9224460D02*
X17205896Y-9205412D01*
X17205896Y-9205412D02*
X17205896Y-9195889D01*
X17205896Y-9195889D02*
X17196373Y-9176841D01*
X17196373Y-9176841D02*
X17177325Y-9167317D01*
X17177325Y-9167317D02*
X17148753Y-9167317D01*
X17148753Y-9167317D02*
X17129706Y-9157793D01*
X17129706Y-9157793D02*
X17120182Y-9138746D01*
X17120182Y-9138746D02*
X17120182Y-9129222D01*
X17120182Y-9129222D02*
X17129706Y-9110174D01*
X17129706Y-9110174D02*
X17148753Y-9100650D01*
X17148753Y-9100650D02*
X17177325Y-9100650D01*
X17177325Y-9100650D02*
X17196373Y-9110174D01*
X17272563Y-9310174D02*
X17282087Y-9300650D01*
X17282087Y-9300650D02*
X17301134Y-9272079D01*
X17301134Y-9272079D02*
X17310658Y-9253031D01*
X17310658Y-9253031D02*
X17320182Y-9224460D01*
X17320182Y-9224460D02*
X17329706Y-9176841D01*
X17329706Y-9176841D02*
X17329706Y-9138746D01*
X17329706Y-9138746D02*
X17320182Y-9091127D01*
X17320182Y-9091127D02*
X17310658Y-9062555D01*
X17310658Y-9062555D02*
X17301134Y-9043508D01*
X17301134Y-9043508D02*
X17282087Y-9014936D01*
X17282087Y-9014936D02*
X17272563Y-9005412D01*
X17634468Y-9310174D02*
X17624944Y-9300650D01*
X17624944Y-9300650D02*
X17605896Y-9272079D01*
X17605896Y-9272079D02*
X17596373Y-9253031D01*
X17596373Y-9253031D02*
X17586849Y-9224460D01*
X17586849Y-9224460D02*
X17577325Y-9176841D01*
X17577325Y-9176841D02*
X17577325Y-9138746D01*
X17577325Y-9138746D02*
X17586849Y-9091127D01*
X17586849Y-9091127D02*
X17596373Y-9062555D01*
X17596373Y-9062555D02*
X17605896Y-9043508D01*
X17605896Y-9043508D02*
X17624944Y-9014936D01*
X17624944Y-9014936D02*
X17634468Y-9005412D01*
X17710658Y-9100650D02*
X17710658Y-9233984D01*
X17710658Y-9119698D02*
X17720182Y-9110174D01*
X17720182Y-9110174D02*
X17739230Y-9100650D01*
X17739230Y-9100650D02*
X17767801Y-9100650D01*
X17767801Y-9100650D02*
X17786849Y-9110174D01*
X17786849Y-9110174D02*
X17796373Y-9129222D01*
X17796373Y-9129222D02*
X17796373Y-9233984D01*
X17920182Y-9233984D02*
X17901134Y-9224460D01*
X17901134Y-9224460D02*
X17891611Y-9214936D01*
X17891611Y-9214936D02*
X17882087Y-9195889D01*
X17882087Y-9195889D02*
X17882087Y-9138746D01*
X17882087Y-9138746D02*
X17891611Y-9119698D01*
X17891611Y-9119698D02*
X17901134Y-9110174D01*
X17901134Y-9110174D02*
X17920182Y-9100650D01*
X17920182Y-9100650D02*
X17948754Y-9100650D01*
X17948754Y-9100650D02*
X17967801Y-9110174D01*
X17967801Y-9110174D02*
X17977325Y-9119698D01*
X17977325Y-9119698D02*
X17986849Y-9138746D01*
X17986849Y-9138746D02*
X17986849Y-9195889D01*
X17986849Y-9195889D02*
X17977325Y-9214936D01*
X17977325Y-9214936D02*
X17967801Y-9224460D01*
X17967801Y-9224460D02*
X17948754Y-9233984D01*
X17948754Y-9233984D02*
X17920182Y-9233984D01*
X18043992Y-9100650D02*
X18120182Y-9100650D01*
X18072563Y-9033984D02*
X18072563Y-9205412D01*
X18072563Y-9205412D02*
X18082087Y-9224460D01*
X18082087Y-9224460D02*
X18101134Y-9233984D01*
X18101134Y-9233984D02*
X18120182Y-9233984D01*
X18339230Y-9100650D02*
X18339230Y-9300650D01*
X18339230Y-9110174D02*
X18358277Y-9100650D01*
X18358277Y-9100650D02*
X18396373Y-9100650D01*
X18396373Y-9100650D02*
X18415420Y-9110174D01*
X18415420Y-9110174D02*
X18424944Y-9119698D01*
X18424944Y-9119698D02*
X18434468Y-9138746D01*
X18434468Y-9138746D02*
X18434468Y-9195889D01*
X18434468Y-9195889D02*
X18424944Y-9214936D01*
X18424944Y-9214936D02*
X18415420Y-9224460D01*
X18415420Y-9224460D02*
X18396373Y-9233984D01*
X18396373Y-9233984D02*
X18358277Y-9233984D01*
X18358277Y-9233984D02*
X18339230Y-9224460D01*
X18548754Y-9233984D02*
X18529706Y-9224460D01*
X18529706Y-9224460D02*
X18520182Y-9205412D01*
X18520182Y-9205412D02*
X18520182Y-9033984D01*
X18710658Y-9233984D02*
X18710658Y-9129222D01*
X18710658Y-9129222D02*
X18701135Y-9110174D01*
X18701135Y-9110174D02*
X18682087Y-9100650D01*
X18682087Y-9100650D02*
X18643992Y-9100650D01*
X18643992Y-9100650D02*
X18624944Y-9110174D01*
X18710658Y-9224460D02*
X18691611Y-9233984D01*
X18691611Y-9233984D02*
X18643992Y-9233984D01*
X18643992Y-9233984D02*
X18624944Y-9224460D01*
X18624944Y-9224460D02*
X18615420Y-9205412D01*
X18615420Y-9205412D02*
X18615420Y-9186365D01*
X18615420Y-9186365D02*
X18624944Y-9167317D01*
X18624944Y-9167317D02*
X18643992Y-9157793D01*
X18643992Y-9157793D02*
X18691611Y-9157793D01*
X18691611Y-9157793D02*
X18710658Y-9148270D01*
X18777325Y-9100650D02*
X18853515Y-9100650D01*
X18805896Y-9033984D02*
X18805896Y-9205412D01*
X18805896Y-9205412D02*
X18815420Y-9224460D01*
X18815420Y-9224460D02*
X18834468Y-9233984D01*
X18834468Y-9233984D02*
X18853515Y-9233984D01*
X18996373Y-9224460D02*
X18977325Y-9233984D01*
X18977325Y-9233984D02*
X18939230Y-9233984D01*
X18939230Y-9233984D02*
X18920182Y-9224460D01*
X18920182Y-9224460D02*
X18910658Y-9205412D01*
X18910658Y-9205412D02*
X18910658Y-9129222D01*
X18910658Y-9129222D02*
X18920182Y-9110174D01*
X18920182Y-9110174D02*
X18939230Y-9100650D01*
X18939230Y-9100650D02*
X18977325Y-9100650D01*
X18977325Y-9100650D02*
X18996373Y-9110174D01*
X18996373Y-9110174D02*
X19005896Y-9129222D01*
X19005896Y-9129222D02*
X19005896Y-9148270D01*
X19005896Y-9148270D02*
X18910658Y-9167317D01*
X19177325Y-9233984D02*
X19177325Y-9033984D01*
X19177325Y-9224460D02*
X19158277Y-9233984D01*
X19158277Y-9233984D02*
X19120182Y-9233984D01*
X19120182Y-9233984D02*
X19101135Y-9224460D01*
X19101135Y-9224460D02*
X19091611Y-9214936D01*
X19091611Y-9214936D02*
X19082087Y-9195889D01*
X19082087Y-9195889D02*
X19082087Y-9138746D01*
X19082087Y-9138746D02*
X19091611Y-9119698D01*
X19091611Y-9119698D02*
X19101135Y-9110174D01*
X19101135Y-9110174D02*
X19120182Y-9100650D01*
X19120182Y-9100650D02*
X19158277Y-9100650D01*
X19158277Y-9100650D02*
X19177325Y-9110174D01*
X19253516Y-9310174D02*
X19263039Y-9300650D01*
X19263039Y-9300650D02*
X19282087Y-9272079D01*
X19282087Y-9272079D02*
X19291611Y-9253031D01*
X19291611Y-9253031D02*
X19301135Y-9224460D01*
X19301135Y-9224460D02*
X19310658Y-9176841D01*
X19310658Y-9176841D02*
X19310658Y-9138746D01*
X19310658Y-9138746D02*
X19301135Y-9091127D01*
X19301135Y-9091127D02*
X19291611Y-9062555D01*
X19291611Y-9062555D02*
X19282087Y-9043508D01*
X19282087Y-9043508D02*
X19263039Y-9014936D01*
X19263039Y-9014936D02*
X19253516Y-9005412D01*
X12497500Y-9406500D02*
G75*
G02*
X12297500Y-9406500I-100000J0D01*
G01*
X12297500Y-9406500D02*
G75*
G02*
X12497500Y-9406500I100000J0D01*
G01*
X12843991Y-9364650D02*
X12843991Y-9497984D01*
X12796372Y-9288460D02*
X12748753Y-9431317D01*
X12748753Y-9431317D02*
X12872562Y-9431317D01*
X12948753Y-9478936D02*
X12958277Y-9488460D01*
X12958277Y-9488460D02*
X12948753Y-9497984D01*
X12948753Y-9497984D02*
X12939229Y-9488460D01*
X12939229Y-9488460D02*
X12948753Y-9478936D01*
X12948753Y-9478936D02*
X12948753Y-9497984D01*
X13024943Y-9297984D02*
X13148753Y-9297984D01*
X13148753Y-9297984D02*
X13082086Y-9374174D01*
X13082086Y-9374174D02*
X13110658Y-9374174D01*
X13110658Y-9374174D02*
X13129705Y-9383698D01*
X13129705Y-9383698D02*
X13139229Y-9393222D01*
X13139229Y-9393222D02*
X13148753Y-9412270D01*
X13148753Y-9412270D02*
X13148753Y-9459889D01*
X13148753Y-9459889D02*
X13139229Y-9478936D01*
X13139229Y-9478936D02*
X13129705Y-9488460D01*
X13129705Y-9488460D02*
X13110658Y-9497984D01*
X13110658Y-9497984D02*
X13053515Y-9497984D01*
X13053515Y-9497984D02*
X13034467Y-9488460D01*
X13034467Y-9488460D02*
X13024943Y-9478936D01*
X13272562Y-9297984D02*
X13291610Y-9297984D01*
X13291610Y-9297984D02*
X13310658Y-9307508D01*
X13310658Y-9307508D02*
X13320182Y-9317031D01*
X13320182Y-9317031D02*
X13329705Y-9336079D01*
X13329705Y-9336079D02*
X13339229Y-9374174D01*
X13339229Y-9374174D02*
X13339229Y-9421793D01*
X13339229Y-9421793D02*
X13329705Y-9459889D01*
X13329705Y-9459889D02*
X13320182Y-9478936D01*
X13320182Y-9478936D02*
X13310658Y-9488460D01*
X13310658Y-9488460D02*
X13291610Y-9497984D01*
X13291610Y-9497984D02*
X13272562Y-9497984D01*
X13272562Y-9497984D02*
X13253515Y-9488460D01*
X13253515Y-9488460D02*
X13243991Y-9478936D01*
X13243991Y-9478936D02*
X13234467Y-9459889D01*
X13234467Y-9459889D02*
X13224943Y-9421793D01*
X13224943Y-9421793D02*
X13224943Y-9374174D01*
X13224943Y-9374174D02*
X13234467Y-9336079D01*
X13234467Y-9336079D02*
X13243991Y-9317031D01*
X13243991Y-9317031D02*
X13253515Y-9307508D01*
X13253515Y-9307508D02*
X13272562Y-9297984D01*
X13463039Y-9297984D02*
X13482086Y-9297984D01*
X13482086Y-9297984D02*
X13501134Y-9307508D01*
X13501134Y-9307508D02*
X13510658Y-9317031D01*
X13510658Y-9317031D02*
X13520182Y-9336079D01*
X13520182Y-9336079D02*
X13529705Y-9374174D01*
X13529705Y-9374174D02*
X13529705Y-9421793D01*
X13529705Y-9421793D02*
X13520182Y-9459889D01*
X13520182Y-9459889D02*
X13510658Y-9478936D01*
X13510658Y-9478936D02*
X13501134Y-9488460D01*
X13501134Y-9488460D02*
X13482086Y-9497984D01*
X13482086Y-9497984D02*
X13463039Y-9497984D01*
X13463039Y-9497984D02*
X13443991Y-9488460D01*
X13443991Y-9488460D02*
X13434467Y-9478936D01*
X13434467Y-9478936D02*
X13424943Y-9459889D01*
X13424943Y-9459889D02*
X13415420Y-9421793D01*
X13415420Y-9421793D02*
X13415420Y-9374174D01*
X13415420Y-9374174D02*
X13424943Y-9336079D01*
X13424943Y-9336079D02*
X13434467Y-9317031D01*
X13434467Y-9317031D02*
X13443991Y-9307508D01*
X13443991Y-9307508D02*
X13463039Y-9297984D01*
X13615420Y-9497984D02*
X13615420Y-9364650D01*
X13615420Y-9383698D02*
X13624943Y-9374174D01*
X13624943Y-9374174D02*
X13643991Y-9364650D01*
X13643991Y-9364650D02*
X13672563Y-9364650D01*
X13672563Y-9364650D02*
X13691610Y-9374174D01*
X13691610Y-9374174D02*
X13701134Y-9393222D01*
X13701134Y-9393222D02*
X13701134Y-9497984D01*
X13701134Y-9393222D02*
X13710658Y-9374174D01*
X13710658Y-9374174D02*
X13729705Y-9364650D01*
X13729705Y-9364650D02*
X13758277Y-9364650D01*
X13758277Y-9364650D02*
X13777324Y-9374174D01*
X13777324Y-9374174D02*
X13786848Y-9393222D01*
X13786848Y-9393222D02*
X13786848Y-9497984D01*
X13882086Y-9497984D02*
X13882086Y-9364650D01*
X13882086Y-9383698D02*
X13891610Y-9374174D01*
X13891610Y-9374174D02*
X13910658Y-9364650D01*
X13910658Y-9364650D02*
X13939229Y-9364650D01*
X13939229Y-9364650D02*
X13958277Y-9374174D01*
X13958277Y-9374174D02*
X13967801Y-9393222D01*
X13967801Y-9393222D02*
X13967801Y-9497984D01*
X13967801Y-9393222D02*
X13977324Y-9374174D01*
X13977324Y-9374174D02*
X13996372Y-9364650D01*
X13996372Y-9364650D02*
X14024943Y-9364650D01*
X14024943Y-9364650D02*
X14043991Y-9374174D01*
X14043991Y-9374174D02*
X14053515Y-9393222D01*
X14053515Y-9393222D02*
X14053515Y-9497984D01*
X14443991Y-9288460D02*
X14272563Y-9545603D01*
X14701134Y-9297984D02*
X14720182Y-9297984D01*
X14720182Y-9297984D02*
X14739229Y-9307508D01*
X14739229Y-9307508D02*
X14748753Y-9317031D01*
X14748753Y-9317031D02*
X14758277Y-9336079D01*
X14758277Y-9336079D02*
X14767801Y-9374174D01*
X14767801Y-9374174D02*
X14767801Y-9421793D01*
X14767801Y-9421793D02*
X14758277Y-9459889D01*
X14758277Y-9459889D02*
X14748753Y-9478936D01*
X14748753Y-9478936D02*
X14739229Y-9488460D01*
X14739229Y-9488460D02*
X14720182Y-9497984D01*
X14720182Y-9497984D02*
X14701134Y-9497984D01*
X14701134Y-9497984D02*
X14682086Y-9488460D01*
X14682086Y-9488460D02*
X14672563Y-9478936D01*
X14672563Y-9478936D02*
X14663039Y-9459889D01*
X14663039Y-9459889D02*
X14653515Y-9421793D01*
X14653515Y-9421793D02*
X14653515Y-9374174D01*
X14653515Y-9374174D02*
X14663039Y-9336079D01*
X14663039Y-9336079D02*
X14672563Y-9317031D01*
X14672563Y-9317031D02*
X14682086Y-9307508D01*
X14682086Y-9307508D02*
X14701134Y-9297984D01*
X14853515Y-9478936D02*
X14863039Y-9488460D01*
X14863039Y-9488460D02*
X14853515Y-9497984D01*
X14853515Y-9497984D02*
X14843991Y-9488460D01*
X14843991Y-9488460D02*
X14853515Y-9478936D01*
X14853515Y-9478936D02*
X14853515Y-9497984D01*
X15053515Y-9497984D02*
X14939229Y-9497984D01*
X14996372Y-9497984D02*
X14996372Y-9297984D01*
X14996372Y-9297984D02*
X14977325Y-9326555D01*
X14977325Y-9326555D02*
X14958277Y-9345603D01*
X14958277Y-9345603D02*
X14939229Y-9355127D01*
X15224944Y-9297984D02*
X15186848Y-9297984D01*
X15186848Y-9297984D02*
X15167801Y-9307508D01*
X15167801Y-9307508D02*
X15158277Y-9317031D01*
X15158277Y-9317031D02*
X15139229Y-9345603D01*
X15139229Y-9345603D02*
X15129706Y-9383698D01*
X15129706Y-9383698D02*
X15129706Y-9459889D01*
X15129706Y-9459889D02*
X15139229Y-9478936D01*
X15139229Y-9478936D02*
X15148753Y-9488460D01*
X15148753Y-9488460D02*
X15167801Y-9497984D01*
X15167801Y-9497984D02*
X15205896Y-9497984D01*
X15205896Y-9497984D02*
X15224944Y-9488460D01*
X15224944Y-9488460D02*
X15234467Y-9478936D01*
X15234467Y-9478936D02*
X15243991Y-9459889D01*
X15243991Y-9459889D02*
X15243991Y-9412270D01*
X15243991Y-9412270D02*
X15234467Y-9393222D01*
X15234467Y-9393222D02*
X15224944Y-9383698D01*
X15224944Y-9383698D02*
X15205896Y-9374174D01*
X15205896Y-9374174D02*
X15167801Y-9374174D01*
X15167801Y-9374174D02*
X15148753Y-9383698D01*
X15148753Y-9383698D02*
X15139229Y-9393222D01*
X15139229Y-9393222D02*
X15129706Y-9412270D01*
X15339229Y-9497984D02*
X15377325Y-9497984D01*
X15377325Y-9497984D02*
X15396372Y-9488460D01*
X15396372Y-9488460D02*
X15405896Y-9478936D01*
X15405896Y-9478936D02*
X15424944Y-9450365D01*
X15424944Y-9450365D02*
X15434467Y-9412270D01*
X15434467Y-9412270D02*
X15434467Y-9336079D01*
X15434467Y-9336079D02*
X15424944Y-9317031D01*
X15424944Y-9317031D02*
X15415420Y-9307508D01*
X15415420Y-9307508D02*
X15396372Y-9297984D01*
X15396372Y-9297984D02*
X15358277Y-9297984D01*
X15358277Y-9297984D02*
X15339229Y-9307508D01*
X15339229Y-9307508D02*
X15329706Y-9317031D01*
X15329706Y-9317031D02*
X15320182Y-9336079D01*
X15320182Y-9336079D02*
X15320182Y-9383698D01*
X15320182Y-9383698D02*
X15329706Y-9402746D01*
X15329706Y-9402746D02*
X15339229Y-9412270D01*
X15339229Y-9412270D02*
X15358277Y-9421793D01*
X15358277Y-9421793D02*
X15396372Y-9421793D01*
X15396372Y-9421793D02*
X15415420Y-9412270D01*
X15415420Y-9412270D02*
X15424944Y-9402746D01*
X15424944Y-9402746D02*
X15434467Y-9383698D01*
X15501134Y-9297984D02*
X15624944Y-9297984D01*
X15624944Y-9297984D02*
X15558277Y-9374174D01*
X15558277Y-9374174D02*
X15586848Y-9374174D01*
X15586848Y-9374174D02*
X15605896Y-9383698D01*
X15605896Y-9383698D02*
X15615420Y-9393222D01*
X15615420Y-9393222D02*
X15624944Y-9412270D01*
X15624944Y-9412270D02*
X15624944Y-9459889D01*
X15624944Y-9459889D02*
X15615420Y-9478936D01*
X15615420Y-9478936D02*
X15605896Y-9488460D01*
X15605896Y-9488460D02*
X15586848Y-9497984D01*
X15586848Y-9497984D02*
X15529706Y-9497984D01*
X15529706Y-9497984D02*
X15510658Y-9488460D01*
X15510658Y-9488460D02*
X15501134Y-9478936D01*
X15701134Y-9297984D02*
X15701134Y-9336079D01*
X15777325Y-9297984D02*
X15777325Y-9336079D01*
X16072563Y-9574174D02*
X16063039Y-9564650D01*
X16063039Y-9564650D02*
X16043991Y-9536079D01*
X16043991Y-9536079D02*
X16034468Y-9517031D01*
X16034468Y-9517031D02*
X16024944Y-9488460D01*
X16024944Y-9488460D02*
X16015420Y-9440841D01*
X16015420Y-9440841D02*
X16015420Y-9402746D01*
X16015420Y-9402746D02*
X16024944Y-9355127D01*
X16024944Y-9355127D02*
X16034468Y-9326555D01*
X16034468Y-9326555D02*
X16043991Y-9307508D01*
X16043991Y-9307508D02*
X16063039Y-9278936D01*
X16063039Y-9278936D02*
X16072563Y-9269412D01*
X16234468Y-9364650D02*
X16234468Y-9497984D01*
X16186848Y-9288460D02*
X16139229Y-9431317D01*
X16139229Y-9431317D02*
X16263039Y-9431317D01*
X16491610Y-9497984D02*
X16491610Y-9297984D01*
X16577325Y-9497984D02*
X16577325Y-9393222D01*
X16577325Y-9393222D02*
X16567801Y-9374174D01*
X16567801Y-9374174D02*
X16548753Y-9364650D01*
X16548753Y-9364650D02*
X16520182Y-9364650D01*
X16520182Y-9364650D02*
X16501134Y-9374174D01*
X16501134Y-9374174D02*
X16491610Y-9383698D01*
X16701134Y-9497984D02*
X16682087Y-9488460D01*
X16682087Y-9488460D02*
X16672563Y-9478936D01*
X16672563Y-9478936D02*
X16663039Y-9459889D01*
X16663039Y-9459889D02*
X16663039Y-9402746D01*
X16663039Y-9402746D02*
X16672563Y-9383698D01*
X16672563Y-9383698D02*
X16682087Y-9374174D01*
X16682087Y-9374174D02*
X16701134Y-9364650D01*
X16701134Y-9364650D02*
X16729706Y-9364650D01*
X16729706Y-9364650D02*
X16748753Y-9374174D01*
X16748753Y-9374174D02*
X16758277Y-9383698D01*
X16758277Y-9383698D02*
X16767801Y-9402746D01*
X16767801Y-9402746D02*
X16767801Y-9459889D01*
X16767801Y-9459889D02*
X16758277Y-9478936D01*
X16758277Y-9478936D02*
X16748753Y-9488460D01*
X16748753Y-9488460D02*
X16729706Y-9497984D01*
X16729706Y-9497984D02*
X16701134Y-9497984D01*
X16882087Y-9497984D02*
X16863039Y-9488460D01*
X16863039Y-9488460D02*
X16853515Y-9469412D01*
X16853515Y-9469412D02*
X16853515Y-9297984D01*
X17034468Y-9488460D02*
X17015420Y-9497984D01*
X17015420Y-9497984D02*
X16977325Y-9497984D01*
X16977325Y-9497984D02*
X16958277Y-9488460D01*
X16958277Y-9488460D02*
X16948753Y-9469412D01*
X16948753Y-9469412D02*
X16948753Y-9393222D01*
X16948753Y-9393222D02*
X16958277Y-9374174D01*
X16958277Y-9374174D02*
X16977325Y-9364650D01*
X16977325Y-9364650D02*
X17015420Y-9364650D01*
X17015420Y-9364650D02*
X17034468Y-9374174D01*
X17034468Y-9374174D02*
X17043992Y-9393222D01*
X17043992Y-9393222D02*
X17043992Y-9412270D01*
X17043992Y-9412270D02*
X16948753Y-9431317D01*
X17120182Y-9488460D02*
X17139230Y-9497984D01*
X17139230Y-9497984D02*
X17177325Y-9497984D01*
X17177325Y-9497984D02*
X17196373Y-9488460D01*
X17196373Y-9488460D02*
X17205896Y-9469412D01*
X17205896Y-9469412D02*
X17205896Y-9459889D01*
X17205896Y-9459889D02*
X17196373Y-9440841D01*
X17196373Y-9440841D02*
X17177325Y-9431317D01*
X17177325Y-9431317D02*
X17148753Y-9431317D01*
X17148753Y-9431317D02*
X17129706Y-9421793D01*
X17129706Y-9421793D02*
X17120182Y-9402746D01*
X17120182Y-9402746D02*
X17120182Y-9393222D01*
X17120182Y-9393222D02*
X17129706Y-9374174D01*
X17129706Y-9374174D02*
X17148753Y-9364650D01*
X17148753Y-9364650D02*
X17177325Y-9364650D01*
X17177325Y-9364650D02*
X17196373Y-9374174D01*
X17272563Y-9574174D02*
X17282087Y-9564650D01*
X17282087Y-9564650D02*
X17301134Y-9536079D01*
X17301134Y-9536079D02*
X17310658Y-9517031D01*
X17310658Y-9517031D02*
X17320182Y-9488460D01*
X17320182Y-9488460D02*
X17329706Y-9440841D01*
X17329706Y-9440841D02*
X17329706Y-9402746D01*
X17329706Y-9402746D02*
X17320182Y-9355127D01*
X17320182Y-9355127D02*
X17310658Y-9326555D01*
X17310658Y-9326555D02*
X17301134Y-9307508D01*
X17301134Y-9307508D02*
X17282087Y-9278936D01*
X17282087Y-9278936D02*
X17272563Y-9269412D01*
X17634468Y-9574174D02*
X17624944Y-9564650D01*
X17624944Y-9564650D02*
X17605896Y-9536079D01*
X17605896Y-9536079D02*
X17596373Y-9517031D01*
X17596373Y-9517031D02*
X17586849Y-9488460D01*
X17586849Y-9488460D02*
X17577325Y-9440841D01*
X17577325Y-9440841D02*
X17577325Y-9402746D01*
X17577325Y-9402746D02*
X17586849Y-9355127D01*
X17586849Y-9355127D02*
X17596373Y-9326555D01*
X17596373Y-9326555D02*
X17605896Y-9307508D01*
X17605896Y-9307508D02*
X17624944Y-9278936D01*
X17624944Y-9278936D02*
X17634468Y-9269412D01*
X17710658Y-9364650D02*
X17710658Y-9497984D01*
X17710658Y-9383698D02*
X17720182Y-9374174D01*
X17720182Y-9374174D02*
X17739230Y-9364650D01*
X17739230Y-9364650D02*
X17767801Y-9364650D01*
X17767801Y-9364650D02*
X17786849Y-9374174D01*
X17786849Y-9374174D02*
X17796373Y-9393222D01*
X17796373Y-9393222D02*
X17796373Y-9497984D01*
X17920182Y-9497984D02*
X17901134Y-9488460D01*
X17901134Y-9488460D02*
X17891611Y-9478936D01*
X17891611Y-9478936D02*
X17882087Y-9459889D01*
X17882087Y-9459889D02*
X17882087Y-9402746D01*
X17882087Y-9402746D02*
X17891611Y-9383698D01*
X17891611Y-9383698D02*
X17901134Y-9374174D01*
X17901134Y-9374174D02*
X17920182Y-9364650D01*
X17920182Y-9364650D02*
X17948754Y-9364650D01*
X17948754Y-9364650D02*
X17967801Y-9374174D01*
X17967801Y-9374174D02*
X17977325Y-9383698D01*
X17977325Y-9383698D02*
X17986849Y-9402746D01*
X17986849Y-9402746D02*
X17986849Y-9459889D01*
X17986849Y-9459889D02*
X17977325Y-9478936D01*
X17977325Y-9478936D02*
X17967801Y-9488460D01*
X17967801Y-9488460D02*
X17948754Y-9497984D01*
X17948754Y-9497984D02*
X17920182Y-9497984D01*
X18043992Y-9364650D02*
X18120182Y-9364650D01*
X18072563Y-9297984D02*
X18072563Y-9469412D01*
X18072563Y-9469412D02*
X18082087Y-9488460D01*
X18082087Y-9488460D02*
X18101134Y-9497984D01*
X18101134Y-9497984D02*
X18120182Y-9497984D01*
X18339230Y-9364650D02*
X18339230Y-9564650D01*
X18339230Y-9374174D02*
X18358277Y-9364650D01*
X18358277Y-9364650D02*
X18396373Y-9364650D01*
X18396373Y-9364650D02*
X18415420Y-9374174D01*
X18415420Y-9374174D02*
X18424944Y-9383698D01*
X18424944Y-9383698D02*
X18434468Y-9402746D01*
X18434468Y-9402746D02*
X18434468Y-9459889D01*
X18434468Y-9459889D02*
X18424944Y-9478936D01*
X18424944Y-9478936D02*
X18415420Y-9488460D01*
X18415420Y-9488460D02*
X18396373Y-9497984D01*
X18396373Y-9497984D02*
X18358277Y-9497984D01*
X18358277Y-9497984D02*
X18339230Y-9488460D01*
X18548754Y-9497984D02*
X18529706Y-9488460D01*
X18529706Y-9488460D02*
X18520182Y-9469412D01*
X18520182Y-9469412D02*
X18520182Y-9297984D01*
X18710658Y-9497984D02*
X18710658Y-9393222D01*
X18710658Y-9393222D02*
X18701135Y-9374174D01*
X18701135Y-9374174D02*
X18682087Y-9364650D01*
X18682087Y-9364650D02*
X18643992Y-9364650D01*
X18643992Y-9364650D02*
X18624944Y-9374174D01*
X18710658Y-9488460D02*
X18691611Y-9497984D01*
X18691611Y-9497984D02*
X18643992Y-9497984D01*
X18643992Y-9497984D02*
X18624944Y-9488460D01*
X18624944Y-9488460D02*
X18615420Y-9469412D01*
X18615420Y-9469412D02*
X18615420Y-9450365D01*
X18615420Y-9450365D02*
X18624944Y-9431317D01*
X18624944Y-9431317D02*
X18643992Y-9421793D01*
X18643992Y-9421793D02*
X18691611Y-9421793D01*
X18691611Y-9421793D02*
X18710658Y-9412270D01*
X18777325Y-9364650D02*
X18853515Y-9364650D01*
X18805896Y-9297984D02*
X18805896Y-9469412D01*
X18805896Y-9469412D02*
X18815420Y-9488460D01*
X18815420Y-9488460D02*
X18834468Y-9497984D01*
X18834468Y-9497984D02*
X18853515Y-9497984D01*
X18996373Y-9488460D02*
X18977325Y-9497984D01*
X18977325Y-9497984D02*
X18939230Y-9497984D01*
X18939230Y-9497984D02*
X18920182Y-9488460D01*
X18920182Y-9488460D02*
X18910658Y-9469412D01*
X18910658Y-9469412D02*
X18910658Y-9393222D01*
X18910658Y-9393222D02*
X18920182Y-9374174D01*
X18920182Y-9374174D02*
X18939230Y-9364650D01*
X18939230Y-9364650D02*
X18977325Y-9364650D01*
X18977325Y-9364650D02*
X18996373Y-9374174D01*
X18996373Y-9374174D02*
X19005896Y-9393222D01*
X19005896Y-9393222D02*
X19005896Y-9412270D01*
X19005896Y-9412270D02*
X18910658Y-9431317D01*
X19177325Y-9497984D02*
X19177325Y-9297984D01*
X19177325Y-9488460D02*
X19158277Y-9497984D01*
X19158277Y-9497984D02*
X19120182Y-9497984D01*
X19120182Y-9497984D02*
X19101135Y-9488460D01*
X19101135Y-9488460D02*
X19091611Y-9478936D01*
X19091611Y-9478936D02*
X19082087Y-9459889D01*
X19082087Y-9459889D02*
X19082087Y-9402746D01*
X19082087Y-9402746D02*
X19091611Y-9383698D01*
X19091611Y-9383698D02*
X19101135Y-9374174D01*
X19101135Y-9374174D02*
X19120182Y-9364650D01*
X19120182Y-9364650D02*
X19158277Y-9364650D01*
X19158277Y-9364650D02*
X19177325Y-9374174D01*
X19253516Y-9574174D02*
X19263039Y-9564650D01*
X19263039Y-9564650D02*
X19282087Y-9536079D01*
X19282087Y-9536079D02*
X19291611Y-9517031D01*
X19291611Y-9517031D02*
X19301135Y-9488460D01*
X19301135Y-9488460D02*
X19310658Y-9440841D01*
X19310658Y-9440841D02*
X19310658Y-9402746D01*
X19310658Y-9402746D02*
X19301135Y-9355127D01*
X19301135Y-9355127D02*
X19291611Y-9326555D01*
X19291611Y-9326555D02*
X19282087Y-9307508D01*
X19282087Y-9307508D02*
X19263039Y-9278936D01*
X19263039Y-9278936D02*
X19253516Y-9269412D01*
M02*
